<?xml version="1.0" encoding="UTF-8"?>
<svg version="1.1" xmlns="http://www.w3.org/2000/svg" width="451" height="464">
<path d="M0 0 C4.41343173 2.81146014 7.70000756 6.15001512 10.0625 10.875 C11.13436366 18.1177359 9.12234613 22.95685696 5.0625 28.875 C4.505625 29.720625 3.94875 30.56625 3.375 31.4375 C-0.56376438 33.8859211 -4.45228731 33.64407826 -8.9375 32.875 C-11.5554185 31.77677103 -13.97830122 30.47771044 -16.46875 29.1171875 C-35.80623848 19.38724868 -63.35827762 26.23445047 -83.09082031 31.07275391 C-87.71776679 32.20056098 -92.29078907 33.10555662 -97.0078125 33.7734375 C-105.21223792 34.97913605 -113.20214426 36.97082987 -121.25 38.9375 C-123.50486142 39.48734208 -125.76007472 40.03545249 -128.01664734 40.57823181 C-129.40569179 40.91239526 -130.79381313 41.25043214 -132.18074036 41.59327698 C-136.76039642 42.69584767 -141.26429751 43.35791925 -145.9375 43.875 C-151.73630426 60.00468369 -153.36629806 74.04556737 -148.9375 90.875 C-148.06351562 90.86339844 -147.18953125 90.85179688 -146.2890625 90.83984375 C-136.13696838 90.76535249 -126.06736119 91.22520364 -115.9375 91.875 C-115.96368408 91.29758057 -115.98986816 90.72016113 -116.0168457 90.12524414 C-116.41362083 79.98286818 -116.65171055 70.14019778 -113.8125 60.3125 C-113.62469971 59.63002197 -113.43689941 58.94754395 -113.2434082 58.24438477 C-111.57547305 53.08841681 -109.25423581 50.87073727 -104.9375 47.875 C-94.20623674 44.05539782 -83.89667463 45.47535255 -73.60546875 49.87109375 C-70.58895938 51.44185269 -68.48623697 52.72036597 -67 55.84765625 C-66.39900251 58.21408388 -66.11001418 60.44019762 -65.9375 62.875 C-65.88078125 63.60332031 -65.8240625 64.33164063 -65.765625 65.08203125 C-65.67638609 67.70119338 -65.78638928 70.25803713 -65.9375 72.875 C-65.99421875 74.14601563 -66.0509375 75.41703125 -66.109375 76.7265625 C-66.72082859 85.74131486 -68.62832066 92.67441762 -73.36914062 100.43408203 C-75.42490035 103.95202401 -75.99327408 105.54617247 -75.30078125 109.62890625 C-73.99582759 112.97649449 -73.99582759 112.97649449 -71.875 116.1875 C-67.032265 124.47112566 -69.29300593 133.5447838 -71.05078125 142.43359375 C-71.1912085 143.14781494 -71.33163574 143.86203613 -71.47631836 144.59790039 C-71.79383532 146.16565089 -72.12904002 147.7298888 -72.47875977 149.29077148 C-74.05439431 156.83418365 -74.27687055 164.25345507 -74.25317383 171.92504883 C-74.2500299 174.04236219 -74.27350407 176.15825031 -74.29882812 178.27539062 C-74.37560145 193.84637481 -73.11280513 206.25446359 -61.9375 217.875 C-60.63559246 220.47881508 -60.62813723 222.97622379 -60.39306641 225.84204102 C-59.6379585 234.68720643 -57.91553701 241.85883479 -53.9375 249.875 C-53.24417121 251.45578964 -52.5562643 253.03897363 -51.875 254.625 C-50.63418531 257.41182977 -49.29683051 260.11425347 -47.875 262.8125 C-46.41033831 265.67109751 -45.48802638 268.38416517 -44.6953125 271.4921875 C-42.99707672 277.2962238 -40.12301671 282.00181768 -36.875 287.0625 C-28.53102213 300.14895281 -28.53102213 300.14895281 -29.3125 307.3125 C-29.51875 308.158125 -29.725 309.00375 -29.9375 309.875 C-31.5875 309.545 -33.2375 309.215 -34.9375 308.875 C-35.17984375 307.98296875 -35.4221875 307.0909375 -35.671875 306.171875 C-36.00703125 305.00140625 -36.3421875 303.8309375 -36.6875 302.625 C-37.01234375 301.46484375 -37.3371875 300.3046875 -37.671875 299.109375 C-38.98401057 295.75613965 -40.24436002 294.19648666 -42.9375 291.875 C-43.4325 291.318125 -43.9275 290.76125 -44.4375 290.1875 C-46.22430641 288.62404439 -47.64827022 288.37694178 -49.9375 287.875 C-49.98648438 287.17632812 -50.03546875 286.47765625 -50.0859375 285.7578125 C-50.19808594 284.39269531 -50.19808594 284.39269531 -50.3125 283 C-50.41691406 281.64261719 -50.41691406 281.64261719 -50.5234375 280.2578125 C-50.73318132 277.69558097 -50.73318132 277.69558097 -52.9375 275.875 C-53.67517269 274.10340053 -54.3522032 272.30640112 -55 270.5 C-56.56229461 266.26683647 -58.22850131 262.19044468 -60.1953125 258.12890625 C-64.75599449 248.66281813 -67.7200058 240.7234278 -68.5625 230.234375 C-69.06480337 225.73457394 -70.46734721 222.60560746 -72.9375 218.875 C-81.82662004 204.80055993 -83.34850905 192.14793175 -83.3125 175.5 C-83.3139502 174.80689728 -83.31540039 174.11379456 -83.31689453 173.39968872 C-83.31456033 163.21775159 -82.37701255 153.51320578 -80.37841797 143.51586914 C-77.56157704 129.97433463 -77.56157704 129.97433463 -80.9375 117.015625 C-83.27572717 112.6450434 -83.55725071 108.95961822 -83.4375 104.0625 C-83.42759033 103.27786377 -83.41768066 102.49322754 -83.4074707 101.68481445 C-83.16641909 94.1045603 -81.30029098 87.79521962 -77.37890625 81.2890625 C-73.83257683 75.34968153 -73.64656068 70.43727486 -74.9375 63.875 C-76.24271846 59.60337595 -79.14697376 58.03039728 -82.9375 55.875 C-85.31834878 55.03201426 -85.31834878 55.03201426 -87.9375 54.875 C-89.195625 54.730625 -90.45375 54.58625 -91.75 54.4375 C-96.15882785 54.52100053 -98.89553733 56.18909273 -102.2421875 58.96484375 C-108.57133823 66.0960758 -108.14533815 77.58106466 -108.3671875 86.59765625 C-108.57088141 91.3420269 -109.25241975 94.80446738 -111.9375 98.875 C-115.45492458 101.74838909 -119.97952664 101.17759233 -124.3125 101.125 C-125.10889893 101.11823242 -125.90529785 101.11146484 -126.72583008 101.10449219 C-147.59927933 100.74557654 -147.59927933 100.74557654 -154.9375 94.875 C-161.87245253 85.07041194 -161.34339272 68.36296599 -159.9375 56.875 C-158.60735591 51.56420413 -156.29764957 46.79900254 -153.9375 41.875 C-153.9375 41.215 -153.9375 40.555 -153.9375 39.875 C-154.53433594 40.07996094 -155.13117188 40.28492188 -155.74609375 40.49609375 C-162.6044556 42.62595649 -169.05238384 43.31068966 -176.18530273 43.49584961 C-179.94343732 43.62050253 -181.73287878 43.73858585 -184.9375 45.875 C-185.15023891 48.79468201 -185.15023891 48.79468201 -184.875 52.1875 C-184.65602753 62.89525383 -188.21627412 71.63998192 -192.703125 81.1953125 C-196.33129613 89.07165868 -199.38453906 97.05342926 -198.9375 105.875 C-196.86993566 108.97634652 -196.51359575 109.31425561 -193.25390625 110.48828125 C-192.50036865 110.76349609 -191.74683105 111.03871094 -190.97045898 111.32226562 C-190.15520752 111.60779297 -189.33995605 111.89332031 -188.5 112.1875 C-187.65832275 112.49236328 -186.81664551 112.79722656 -185.94946289 113.11132812 C-180.78137885 114.95799796 -175.57797076 116.60120964 -170.31445312 118.15136719 C-160.29120618 121.1246362 -150.85115212 124.61884886 -144.9375 133.875 C-142.01092356 142.65472931 -142.77524603 153.05722593 -142.65625 162.24609375 C-142.63784058 163.37088638 -142.61943115 164.49567902 -142.60046387 165.65455627 C-142.54242424 169.20715759 -142.48932177 172.75980291 -142.4375 176.3125 C-142.36904045 180.99878044 -142.29648922 185.68495792 -142.21875 190.37109375 C-142.20168503 191.48348419 -142.18462006 192.59587463 -142.16703796 193.74197388 C-142.0423051 200.60722666 -141.69698301 207.3635768 -140.8762207 214.18481445 C-140.97582079 218.55729797 -143.01706955 221.67108148 -145.3203125 225.28515625 C-146.91239587 227.83479701 -147.96346136 230.24842609 -149 233.0625 C-150.52019193 237.08242177 -152.47524063 240.41997361 -154.83984375 243.9921875 C-156.46816858 246.78525714 -157.14352644 249.76018063 -157.9375 252.875 C-158.5975 253.865 -159.2575 254.855 -159.9375 255.875 C-160.5975 255.875 -161.2575 255.875 -161.9375 255.875 C-162.33388672 257.20917969 -162.33388672 257.20917969 -162.73828125 258.5703125 C-163.8917986 261.74906065 -165.20041674 263.9930455 -167.125 266.75 C-175.48959623 279.67868089 -179.42324835 293.51426832 -183.25097656 308.28173828 C-185.93601829 318.4241683 -189.31373461 328.23005722 -193.41015625 337.88671875 C-193.92907747 339.21234871 -194.43704469 340.54228904 -194.9375 341.875 C-195.25122559 342.69774414 -195.56495117 343.52048828 -195.88818359 344.36816406 C-199.78178628 355.65717483 -200.90340035 367.46110164 -202.4375 379.25 C-206.7586328 412.34740802 -206.7586328 412.34740802 -213.203125 426.921875 C-214.11347196 428.99523971 -214.11347196 428.99523971 -213.9375 431.875 C-209.93495544 431.96681134 -209.93495544 431.96681134 -205.9375 431.875 C-204.18738858 430.12488858 -204.30679136 427.59467007 -203.921875 425.21484375 C-203.7252124 424.03623779 -203.5285498 422.85763184 -203.32592773 421.64331055 C-203.11524658 420.37914307 -202.90456543 419.11497559 -202.6875 417.8125 C-201.069779 408.41315651 -199.21164049 399.42893393 -196.125 390.41015625 C-194.48467892 385.52696357 -193.26274835 380.56886198 -192.02734375 375.5703125 C-191.16054598 372.63127778 -190.17550388 370.0342524 -188.97265625 367.234375 C-186.54624159 361.30936984 -185.50417363 355.28969626 -184.4375 349 C-180.41525667 325.44907183 -180.41525667 325.44907183 -173.20703125 318.27734375 C-171.6834815 316.78337301 -171.6834815 316.78337301 -170.9375 313.875 C-169.46273784 312.62964529 -167.98409566 311.38807598 -166.47265625 310.1875 C-164.76276471 308.81148428 -164.76276471 308.81148428 -163.0625 306.5 C-160.74215031 303.63368567 -158.22219201 301.42744921 -155.421875 299.04296875 C-153.4784015 297.3470131 -151.58418253 295.62663582 -149.703125 293.86328125 C-148.84932251 293.06386108 -148.84932251 293.06386108 -147.97827148 292.24829102 C-146.84700559 291.18574165 -145.71878301 290.11994053 -144.59399414 289.05053711 C-142.25267919 286.85802399 -140.11846279 284.98341341 -137.35546875 283.328125 C-134.4077186 281.55661764 -132.3555868 279.31500299 -129.9375 276.875 C-127.83327096 275.22357974 -125.74797985 273.65586678 -123.5625 272.125 C-123.02367188 271.72667969 -122.48484375 271.32835937 -121.9296875 270.91796875 C-117.98276112 268.14572284 -114.7454175 267.08203951 -109.9375 266.875 C-107.56943098 268.11051427 -105.96328217 269.20809766 -103.9375 270.875 C-103.18855469 271.44347656 -102.43960938 272.01195312 -101.66796875 272.59765625 C-92.43026144 279.62667102 -92.43026144 279.62667102 -91 283.25 C-90.0677375 285.965291 -90.0677375 285.965291 -88.0390625 288.046875 C-85.48633264 291.48214715 -84.43255889 294.68138903 -83.25 298.75 C-83.03794922 299.43191406 -82.82589844 300.11382812 -82.60742188 300.81640625 C-79.26975575 311.87176724 -79.26975575 311.87176724 -80.9375 316.875 C-83.25 316.75 -83.25 316.75 -85.9375 315.875 C-89.03855481 310.77427256 -90.09705504 305.48171056 -91.22265625 299.70898438 C-92.35160475 294.62871612 -94.08049677 292.27627663 -97.9375 288.875 C-98.85790305 287.87350198 -99.7638037 286.85852024 -100.65625 285.83203125 C-101.11386719 285.31576172 -101.57148438 284.79949219 -102.04296875 284.26757812 C-102.97848428 283.20758924 -103.90812689 282.14239014 -104.83203125 281.07226562 C-107.62346682 277.94664411 -109.89653035 276.06825734 -113.9375 274.875 C-116.40782286 277.27670278 -118.70774395 279.54677708 -120.6875 282.375 C-122.85196048 284.77995609 -123.94256485 285.46388162 -126.75 286.8125 C-133.96334152 290.55053956 -139.47122904 296.70058009 -145.26660156 302.28515625 C-147.24934989 304.17172216 -149.29370603 305.97308499 -151.375 307.75 C-162.16186454 317.0924032 -172.29707113 326.45307825 -173.625 341.25 C-175.19746622 354.03262861 -179.38696447 366.45084673 -183.54296875 378.60546875 C-184.89893586 382.62881624 -185.90209911 386.6687448 -186.8125 390.8125 C-188.42114665 397.9055689 -190.27572666 404.90558448 -192.27490234 411.89819336 C-194.16815856 418.54725479 -195.08036195 424.27019083 -195 431.1875 C-194.99548828 431.92806641 -194.99097656 432.66863281 -194.98632812 433.43164062 C-194.97462175 435.24612899 -194.95668898 437.06057534 -194.9375 438.875 C-197.74352265 440.27801133 -200.08768367 440.0047542 -203.22265625 440.0078125 C-204.47498047 440.00910156 -205.72730469 440.01039063 -207.01757812 440.01171875 C-208.33177734 440.00785156 -209.64597656 440.00398438 -211 440 C-212.31806641 440.00386719 -213.63613281 440.00773437 -214.99414062 440.01171875 C-216.24517578 440.01042969 -217.49621094 440.00914062 -218.78515625 440.0078125 C-219.94023682 440.00668457 -221.09531738 440.00555664 -222.28540039 440.00439453 C-224.9375 439.875 -224.9375 439.875 -225.9375 438.875 C-225.62950468 433.84440985 -224.33708594 430.44602172 -221.98046875 426.0390625 C-220.52081438 423.01041636 -219.63916833 419.89408471 -218.74609375 416.66015625 C-218.29520331 415.10708917 -217.82087816 413.55866747 -217.26147461 412.04130554 C-215.01542313 405.8611445 -214.04569286 399.80622093 -213.25390625 393.296875 C-212.96296984 391.06118761 -212.67195165 388.82551086 -212.38085938 386.58984375 C-211.93891521 383.11060463 -211.50074136 379.6309234 -211.06518555 376.15087891 C-207.93476361 351.32921961 -207.93476361 351.32921961 -203.9375 340.875 C-203.57289673 339.84632813 -203.57289673 339.84632813 -203.20092773 338.796875 C-202.62279652 337.18663345 -202.00148315 335.59205289 -201.375 334 C-200.95347656 332.92105469 -200.53195313 331.84210938 -200.09765625 330.73046875 C-199.21983519 328.56990581 -198.28032572 326.43427176 -197.3125 324.3125 C-196.06992601 321.20606502 -195.27038264 318.30881829 -194.5 315.0625 C-193.58960291 311.23124559 -192.54493172 307.68343372 -191 304.0625 C-189.24393558 299.92510579 -188.09210633 295.79711799 -187 291.4375 C-185.55129893 285.7852844 -183.74369531 280.67521597 -181.18359375 275.4375 C-180.23252014 273.48168718 -179.36278778 271.48611213 -178.53125 269.4765625 C-176.92922209 265.85629355 -175.08899251 262.61003017 -173 259.25 C-172.33097656 258.16460937 -171.66195312 257.07921875 -170.97265625 255.9609375 C-168.9375 252.875 -168.9375 252.875 -166.8125 250.32421875 C-164.79846849 247.69339009 -163.88421493 245.45373609 -162.875 242.3125 C-161.24115347 237.25669164 -161.24115347 237.25669164 -159.40234375 234.9453125 C-156.88103842 231.38186763 -156.69771398 227.10665676 -155.9765625 222.87109375 C-154.9375 219.875 -154.9375 219.875 -152.4609375 217.97265625 C-149.9375 216.875 -149.9375 216.875 -147.9375 216.875 C-148.67395752 215.14866333 -148.67395752 215.14866333 -149.42529297 213.38745117 C-151.53654562 207.01314289 -151.26669863 200.5898414 -151.16479874 193.95791054 C-151.13220339 191.63232325 -151.12384327 189.30778397 -151.12252808 186.98197937 C-151.11695097 180.37674035 -151.087566 173.77237498 -150.99609375 167.16772461 C-150.94162646 163.11087967 -150.93100006 159.05588507 -150.94823837 154.99873924 C-150.94630041 153.46011609 -150.92791153 151.9214187 -150.89242935 150.38320351 C-150.42210134 141.92687072 -150.42210134 141.92687072 -153.8993988 134.61366272 C-156.20245254 133.04337293 -158.35263529 131.90366543 -160.9375 130.875 C-161.95457031 130.42769531 -162.97164062 129.98039063 -164.01953125 129.51953125 C-165.37111328 129.10767578 -165.37111328 129.10767578 -166.75 128.6875 C-168.25433594 128.21957031 -168.25433594 128.21957031 -169.7890625 127.7421875 C-174.03884611 126.57165157 -178.32206668 125.58457816 -182.63671875 124.68359375 C-183.39597656 124.41675781 -184.15523437 124.14992188 -184.9375 123.875 C-185.2675 122.885 -185.5975 121.895 -185.9375 120.875 C-188.99342152 119.98390542 -188.99342152 119.98390542 -192.625 119.4375 C-198.58957605 118.2895317 -202.60353592 117.20896408 -206.9375 112.875 C-207.45304117 102.97066106 -207.93621851 93.13698902 -203.9375 83.875 C-203.63585937 83.13507813 -203.33421875 82.39515625 -203.0234375 81.6328125 C-201.30363738 77.59198133 -199.3349666 73.70872242 -197.3125 69.8125 C-193.84122847 62.89138454 -192.55939773 57.6424855 -193.9375 49.875 C-194.32735357 45.21214617 -194.63313107 40.54414887 -194.9375 35.875 C-191.9375 34.875 -191.9375 34.875 -189.71484375 35.359375 C-180.5659976 37.05789496 -169.03951377 33.62492636 -160.12109375 31.55859375 C-156.71287096 30.82676677 -153.41300847 30.17667909 -149.9375 29.875 C-148.4525 30.865 -148.4525 30.865 -146.9375 31.875 C-139.34819531 31.54602812 -132.24268725 29.53797135 -124.9375 27.5625 C-122.51864126 26.9203208 -120.09937056 26.27969123 -117.6796875 25.640625 C-116.51663086 25.33318359 -115.35357422 25.02574219 -114.15527344 24.70898438 C-110.14002253 23.66830933 -106.10859681 22.7241421 -102.0625 21.8125 C-94.92558372 20.1871919 -87.91150442 18.20306861 -80.88452148 16.15820312 C-74.98744217 14.44543459 -69.07180594 12.842928 -63.125 11.3125 C-57.38719065 9.82858379 -51.70949252 8.23664311 -46.0625 6.4375 C-43.35475974 5.58144466 -40.64633591 4.72758182 -37.9375 3.875 C-37.09864258 3.60977539 -36.25978516 3.34455078 -35.39550781 3.07128906 C-9.83440287 -4.92522297 -9.83440287 -4.92522297 0 0 Z M-28.4375 9.875 C-29.54609375 10.2565625 -30.6546875 10.638125 -31.796875 11.03125 C-34.51439267 11.96832506 -37.22750516 12.91643174 -39.9375 13.875 C-37.43529106 16.37720894 -36.21907238 16.26147357 -32.75 16.6875 C-24.70613111 17.89651787 -16.24785376 20.21982312 -8.9375 23.875 C-7.56407169 23.9439472 -6.18747898 23.95967708 -4.8125 23.9375 C-2.894375 23.9065625 -2.894375 23.9065625 -0.9375 23.875 C1.39736745 20.22676961 1.36649283 17.13089957 1.0625 12.875 C0.65380748 10.55750878 0.65380748 10.55750878 -0.9375 8.875 C-10.55305624 3.49028851 -18.60397263 6.39327261 -28.4375 9.875 Z " fill="#121212" transform="translate(237.9375,15.125)"/>
<path d="M0 0 C9.46002317 0.0079646 18.92004502 0.01341876 28.38007081 0.01709592 C29.39102557 0.01749001 29.39102557 0.01749001 30.42240367 0.01789206 C33.80621542 0.01919785 37.19002718 0.02046138 40.57383895 0.02170396 C68.29026073 0.03193569 96.00667406 0.04950338 123.72308838 0.07202756 C123.72308838 1.39202756 123.72308838 2.71202756 123.72308838 4.07202756 C114.80770254 8.52972049 99.03996978 6.24143471 89.13934815 6.27734983 C87.43272154 6.2869564 85.72609718 6.29696797 84.0194751 6.30734861 C79.43581332 6.33410328 74.85214155 6.35526989 70.26844633 6.37535059 C65.45984696 6.3973944 60.65127731 6.42469207 55.84270203 6.45140684 C46.75902232 6.5010874 37.67532589 6.54611638 28.59161383 6.5894292 C18.24077819 6.63901375 7.88997241 6.69385238 -2.46083426 6.74910879 C-23.73283216 6.86255005 -45.00485864 6.96946976 -66.27691162 7.07202756 C-63.78739258 9.67113394 -61.41697838 11.21182003 -58.21441162 12.88452756 C-40.8835226 22.18122962 -40.8835226 22.18122962 -37.27691162 28.07202756 C-36.627922 32.18229514 -36.78203104 34.20103775 -38.83941162 37.82202756 C-43.5000689 42.12417275 -48.7451469 43.83830648 -55.01909912 43.61499631 C-59.44638619 42.55030271 -62.18057686 39.23621029 -65.27691162 36.07202756 C-69.23969195 32.33817279 -72.96284946 29.10587008 -77.83941162 26.63452756 C-84.45116105 23.12881586 -88.57030272 18.53303221 -90.8711499 11.41870725 C-91.13598175 10.60553037 -91.40081359 9.79235349 -91.67367065 8.95453489 C-91.87274017 8.33330747 -92.07180969 7.71208005 -92.27691162 7.07202756 C-93.36161743 7.0617201 -94.44632324 7.05141263 -95.56389892 7.04079282 C-105.80389725 6.94288635 -116.04383715 6.84013663 -126.28373992 6.73268831 C-131.54771941 6.67760734 -136.81170457 6.62421173 -142.07573974 6.57471311 C-147.15916579 6.52685002 -152.24252792 6.47450057 -157.32587707 6.41908681 C-159.2618451 6.39876229 -161.19783058 6.3800335 -163.13382995 6.36295354 C-165.85281167 6.33868888 -168.57167507 6.30866647 -171.29058349 6.27734983 C-172.48173767 6.26871664 -172.48173767 6.26871664 -173.69695556 6.25990903 C-178.63074636 6.19563804 -183.39040482 5.76437811 -188.27691162 5.07202756 C-188.27691162 4.08202756 -188.27691162 3.09202756 -188.27691162 2.07202756 C-173.51507456 1.23723646 -158.76690514 0.75974257 -143.98394287 0.51343381 C-142.74476419 0.4923764 -141.50558551 0.47131898 -140.22885597 0.44962347 C-93.49269267 -0.30701578 -46.7404446 -0.04005599 0 0 Z M-80.27691162 10.07202756 C-80.60691162 11.06202756 -80.93691162 12.05202756 -81.27691162 13.07202756 C-80.20147378 14.0598595 -79.11617945 15.036967 -78.02691162 16.00952756 C-77.42363037 16.554801 -76.82034912 17.10007444 -76.19878662 17.66187131 C-74.19223856 19.13415556 -72.70688713 19.64731945 -70.27691162 20.07202756 C-70.27691162 20.73202756 -70.27691162 21.39202756 -70.27691162 22.07202756 C-68.81783636 23.32583954 -68.81783636 23.32583954 -66.96441162 24.50952756 C-65.06094553 25.78249545 -63.37663786 26.97204495 -61.75738037 28.59546506 C-58.5617122 31.78270139 -54.84212525 33.93881789 -50.33941162 34.32202756 C-49.31847412 34.19827756 -49.31847412 34.19827756 -48.27691162 34.07202756 C-47.94691162 32.42202756 -47.61691162 30.77202756 -47.27691162 29.07202756 C-48.22050537 28.52675413 -49.16409912 27.98148069 -50.13628662 27.41968381 C-57.7223641 22.97982797 -64.77371144 18.39379111 -71.59331787 12.82202756 C-74.5608343 10.88687857 -76.77913304 10.40074684 -80.27691162 10.07202756 Z " fill="#2F2F2F" transform="translate(321.2769116163254,405.92797243595123)"/>
<path d="M0 0 C7.12235213 0.41090493 7.12235213 0.41090493 10.578125 3.46484375 C11.38437913 4.64983647 12.1497149 5.86293475 12.890625 7.08984375 C13.46683594 7.97027344 14.04304688 8.85070312 14.63671875 9.7578125 C16.97170075 13.35494693 19.2396413 16.98317146 21.4140625 20.6796875 C23.04330856 23.42356116 23.04330856 23.42356116 25.890625 27.08984375 C25.890625 18.50984375 25.890625 9.92984375 25.890625 1.08984375 C33.765625 -0.03515625 33.765625 -0.03515625 36.890625 1.08984375 C37.73939977 4.01618041 37.99100547 6.54179902 37.91235352 9.58300781 C37.89225723 10.46361877 37.87216095 11.34422974 37.85145569 12.25152588 C37.81090309 13.6642276 37.81090309 13.6642276 37.76953125 15.10546875 C37.73411476 16.56191803 37.73411476 16.56191803 37.69798279 18.04779053 C37.62148445 21.14529545 37.53740043 24.24254162 37.453125 27.33984375 C37.39989048 29.44139364 37.34715018 31.54295611 37.29492188 33.64453125 C37.16588796 38.79313223 37.03005102 43.94151414 36.890625 49.08984375 C35.44315279 48.97378263 33.99669322 48.84504401 32.55078125 48.7109375 C31.74519775 48.64060303 30.93961426 48.57026855 30.10961914 48.49780273 C27.0182066 47.92945084 25.6623153 46.63183418 23.890625 44.08984375 C23.890625 43.42984375 23.890625 42.76984375 23.890625 42.08984375 C23.230625 42.08984375 22.570625 42.08984375 21.890625 42.08984375 C21.57609375 41.50976562 21.2615625 40.9296875 20.9375 40.33203125 C18.43777384 35.76927808 15.8240258 31.39216492 12.890625 27.08984375 C11.88494258 25.42659974 10.88397701 23.76048122 9.890625 22.08984375 C9.230625 21.09984375 8.570625 20.10984375 7.890625 19.08984375 C7.560625 28.98984375 7.230625 38.88984375 6.890625 49.08984375 C-0.109375 49.08984375 -0.109375 49.08984375 -2.109375 48.08984375 C-3.01247459 37.09138089 -3.22000942 26.11901703 -3.234375 15.08984375 C-3.23687256 14.40670105 -3.23937012 13.72355835 -3.24194336 13.01971436 C-3.24781252 11.06393296 -3.24517686 9.10813167 -3.2421875 7.15234375 C-3.24105957 6.00894531 -3.23993164 4.86554688 -3.23876953 3.6875 C-3.0615832 0.13040077 -3.0615832 0.13040077 0 0 Z " fill="#292929" transform="translate(342.109375,334.91015625)"/>
<path d="M0 0 C1.57732214 2.66173111 0.70634845 4.7978927 0 7.6875 C-4.7260452 7.97684971 -8.20711666 8.02926006 -12.625 6.125 C-16.67965908 4.39801558 -18.79345698 4.47407413 -23 5.6875 C-27.56443311 10.28430498 -26.98509099 16.57480486 -27 22.6875 C-26.65854384 26.99281677 -25.50864556 29.20251237 -22.3125 32.25 C-19.02463859 34.02574592 -19.02463859 34.02574592 -15.3125 33.125 C-12.44399507 31.88017711 -10.87680759 31.11630982 -9 28.6875 C-9.33 27.6975 -9.66 26.7075 -10 25.6875 C-11.11375 25.56375 -12.2275 25.44 -13.375 25.3125 C-17 24.6875 -17 24.6875 -19 22.6875 C-19.25 20.1875 -19.25 20.1875 -19 17.6875 C-17 15.6875 -17 15.6875 -15.13647461 15.44458008 C-14.03057983 15.45074341 -14.03057983 15.45074341 -12.90234375 15.45703125 C-12.10119141 15.45896484 -11.30003906 15.46089844 -10.47460938 15.46289062 C-9.21874023 15.48125977 -9.21874023 15.48125977 -7.9375 15.5 C-6.67583008 15.5009668 -6.67583008 15.5009668 -5.38867188 15.50195312 C0.85976816 15.54726816 0.85976816 15.54726816 2 16.6875 C2.25299591 20.63933868 2.18522734 24.60352259 2.1875 28.5625 C2.19974609 29.67753906 2.21199219 30.79257812 2.22460938 31.94140625 C2.22654297 33.01003906 2.22847656 34.07867187 2.23046875 35.1796875 C2.23457764 36.16308105 2.23868652 37.14647461 2.24291992 38.15966797 C2 40.6875 2 40.6875 0 43.6875 C-2.31 43.3575 -4.62 43.0275 -7 42.6875 C-7.33 41.3675 -7.66 40.0475 -8 38.6875 C-8.763125 39.3475 -9.52625 40.0075 -10.3125 40.6875 C-14.87753351 43.69847955 -19.74104175 43.53788474 -25 42.6875 C-29.56355397 40.97142147 -32.81276352 38.47026836 -35.375 34.3125 C-39.37883076 25.38087754 -40.16099817 16.651905 -37.2109375 7.14453125 C-34.84248267 2.01287911 -31.67432899 -1.00962178 -26.5625 -3.5 C-17.17310775 -6.47712437 -8.26178678 -5.42179758 0 0 Z " fill="#0C0C0C" transform="translate(426,340.3125)"/>
<path d="M0 0 C2.03125 0.0859375 2.03125 0.0859375 4.5 0.375 C5.3146875 0.46523438 6.129375 0.55546875 6.96875 0.6484375 C9 1 9 1 10 2 C10.07320163 4.5327765 10.09227569 7.03103918 10.0625 9.5625 C10.0315625 13.2440625 10.0315625 13.2440625 10 17 C16.27 17 22.54 17 29 17 C28.92098174 12.15333889 28.92098174 12.15333889 28.81982422 7.30712891 C28.8051883 5.53712725 28.90071486 3.76727545 29 2 C31 0 31 0 32.91015625 -0.23046875 C38.88888889 -0.11111111 38.88888889 -0.11111111 40 1 C40.09311889 2.50418739 40.11746028 4.01271356 40.11352539 5.51977539 C40.11344986 6.48069595 40.11337433 7.44161652 40.11329651 8.43165588 C40.10813522 9.476436 40.10297394 10.52121613 40.09765625 11.59765625 C40.0962413 12.66165146 40.09482635 13.72564667 40.09336853 14.82188416 C40.08775064 18.23545083 40.07519511 21.648953 40.0625 25.0625 C40.05748731 27.37044176 40.052924 29.67838455 40.04882812 31.98632812 C40.0377754 37.65757426 40.02101987 43.32878253 40 49 C38.35425434 49.02688151 36.70838587 49.04634123 35.0625 49.0625 C33.68771484 49.07990234 33.68771484 49.07990234 32.28515625 49.09765625 C30 49 30 49 29 48 C28.98334926 46.43576568 29.03691108 44.87064994 29.12109375 43.30859375 C29.19360352 41.89223633 29.19360352 41.89223633 29.26757812 40.44726562 C29.32365234 39.45404297 29.37972656 38.46082031 29.4375 37.4375 C29.51581055 35.94186523 29.51581055 35.94186523 29.59570312 34.41601562 C29.72582177 31.94376146 29.86232227 29.47184473 30 27 C23.73 27.33 17.46 27.66 11 28 C10.67 34.93 10.34 41.86 10 49 C6.7 49 3.4 49 0 49 C-1.28616569 44.07246552 -1.14403337 39.19403515 -1.1328125 34.140625 C-1.13424759 32.72314972 -1.13424759 32.72314972 -1.13571167 31.27703857 C-1.13639047 29.28674248 -1.13455711 27.29644415 -1.13037109 25.30615234 C-1.12499476 22.24702043 -1.13033841 19.18803375 -1.13671875 16.12890625 C-1.13605838 14.19531217 -1.13477808 12.26171819 -1.1328125 10.328125 C-1.13483673 9.40839905 -1.13686096 8.4886731 -1.13894653 7.54107666 C-1.11496565 1.11496565 -1.11496565 1.11496565 0 0 Z " fill="#1B1B1B" transform="translate(139,335)"/>
<path d="M0 0 C21.49480007 0.14401876 21.49480007 0.14401876 28.14453125 5.265625 C31.02973274 9.46228171 30.82898389 14.36852932 30.14453125 19.265625 C28.25937902 21.84199971 26.95118268 22.86229928 24.14453125 24.265625 C25.30203325 27.35229699 26.63864109 30.27562958 28.14453125 33.203125 C30.62962114 38.13621389 32.62729636 42.63336534 32.14453125 48.265625 C31.14453125 49.265625 31.14453125 49.265625 27.76953125 49.515625 C24.14453125 49.265625 24.14453125 49.265625 22.5625 48.1875 C19.84680643 44.50672524 19.00692325 39.85473489 17.71875 35.515625 C15.79293375 31.53974628 14.25049986 30.71041602 10.14453125 29.265625 C9.15453125 29.265625 8.16453125 29.265625 7.14453125 29.265625 C7.10714844 30.54179687 7.06976563 31.81796875 7.03125 33.1328125 C6.96560334 34.80211338 6.89915555 36.47138289 6.83203125 38.140625 C6.79819336 39.40326172 6.79819336 39.40326172 6.76367188 40.69140625 C6.72822266 41.49707031 6.69277344 42.30273438 6.65625 43.1328125 C6.63006592 43.87644043 6.60388184 44.62006836 6.5769043 45.38623047 C6.14453125 47.265625 6.14453125 47.265625 3.14453125 49.265625 C0.01953125 49.453125 0.01953125 49.453125 -2.85546875 49.265625 C-4.42516765 47.6959261 -3.99045977 46.14122322 -4.00073242 43.96118164 C-4.00711227 43.04675797 -4.01349213 42.13233429 -4.02006531 41.19020081 C-4.02117813 40.19544235 -4.02229095 39.2006839 -4.0234375 38.17578125 C-4.0267659 37.16092148 -4.0300943 36.14606171 -4.03352356 35.10044861 C-4.03859725 32.9492132 -4.04093175 30.7979699 -4.04077148 28.64672852 C-4.04295709 25.34573464 -4.06110582 22.04507525 -4.08007812 18.74414062 C-4.08301206 16.65885532 -4.08499685 14.57356841 -4.0859375 12.48828125 C-4.09312302 11.49554703 -4.10030853 10.50281281 -4.10771179 9.47999573 C-4.10309685 8.10363197 -4.10309685 8.10363197 -4.09838867 6.69946289 C-4.09981369 5.88973526 -4.10123871 5.08000763 -4.10270691 4.2457428 C-3.75791918 1.48435544 -2.7787266 0.39779665 0 0 Z M6.14453125 10.265625 C6.14453125 13.565625 6.14453125 16.865625 6.14453125 20.265625 C10.5184981 21.28282659 13.18226356 21.51447963 17.14453125 19.265625 C18.94801203 17.25245281 18.94801203 17.25245281 20.14453125 15.265625 C19.03069224 12.27605417 19.03069224 12.27605417 16.51953125 10.515625 C13.04715398 10.1501116 9.63588827 10.20743572 6.14453125 10.265625 Z " fill="#0C0C0C" transform="translate(241.85546875,334.734375)"/>
<path d="M0 0 C3.5 0.1875 3.5 0.1875 5.5 1.1875 C5.51981934 2.20175049 5.53963867 3.21600098 5.56005859 4.26098633 C5.63613023 8.02393424 5.72484491 11.78649623 5.81738281 15.54907227 C5.85566618 17.17757549 5.89052024 18.80616309 5.921875 20.43481445 C5.96754002 22.77586014 6.02553077 25.1163253 6.0859375 27.45703125 C6.09748871 28.18525589 6.10903992 28.91348053 6.12094116 29.66377258 C6.22878512 33.35711374 6.39884276 35.03576414 8.5 38.1875 C10.35811914 38.80361847 10.35811914 38.80361847 12.4375 38.9375 C13.12714844 39.01484375 13.81679687 39.0921875 14.52734375 39.171875 C16.71511562 39.29564587 16.71511562 39.29564587 19.5 38.1875 C23.77069485 31.49905679 22.76164874 24.04410537 22.5625 16.375 C22.49954873 13.74338375 22.45155507 11.11263215 22.41015625 8.48046875 C22.38058838 7.3205542 22.35102051 6.16063965 22.32055664 4.96557617 C22.5 2.1875 22.5 2.1875 24.5 0.1875 C27.21454956 -0.14002234 29.75230759 0.0566575 32.5 0.1875 C34.83786148 2.52536148 33.67178487 8.39284463 33.68554688 11.5 C33.68546631 12.18835938 33.68538574 12.87671875 33.68530273 13.5859375 C33.68746211 15.65125994 33.70553279 17.71602416 33.72460938 19.78125 C33.79199022 35.60351956 33.79199022 35.60351956 30.5 42.1875 C29.84 42.1875 29.18 42.1875 28.5 42.1875 C28.17 43.1775 27.84 44.1675 27.5 45.1875 C20.72034968 48.78486548 14.67440255 50.02273466 7.25 47.875 C4.20239838 46.88016189 1.24239567 45.86307362 -1.5 44.1875 C-5.06526737 34.99286311 -4.7804754 24.48060156 -5.1875 14.75 C-5.24744141 13.56728516 -5.30738281 12.38457031 -5.36914062 11.16601562 C-5.41619141 10.04001953 -5.46324219 8.91402344 -5.51171875 7.75390625 C-5.55772217 6.73240479 -5.60372559 5.71090332 -5.65112305 4.65844727 C-5.3962758 0.49155072 -4.00063046 0.21431949 0 0 Z " fill="#181818" transform="translate(194.5,334.8125)"/>
<path d="M0 0 C1.91015625 0.1328125 1.91015625 0.1328125 3.91015625 1.1328125 C4.24015625 13.6728125 4.57015625 26.2128125 4.91015625 39.1328125 C10.85015625 39.4628125 16.79015625 39.7928125 22.91015625 40.1328125 C23.91015625 41.1328125 23.91015625 41.1328125 24.09765625 43.5703125 C23.91015625 46.1328125 23.91015625 46.1328125 21.91015625 48.1328125 C19.02099609 48.35986328 19.02099609 48.35986328 15.37109375 48.328125 C13.41816406 48.31845703 13.41816406 48.31845703 11.42578125 48.30859375 C10.0455703 48.29188179 8.66536196 48.27495189 7.28515625 48.2578125 C5.89714173 48.24778256 4.50912036 48.23865673 3.12109375 48.23046875 C-0.28272401 48.20683113 -3.68619881 48.17388117 -7.08984375 48.1328125 C-7.1151132 41.4576091 -7.13267643 34.78241793 -7.14477539 28.10717773 C-7.149817 25.83438659 -7.15665012 23.5615987 -7.1652832 21.28881836 C-7.17735636 18.02977699 -7.18307362 14.77077833 -7.1875 11.51171875 C-7.19266129 10.48881241 -7.19782257 9.46590607 -7.20314026 8.41200256 C-7.20321579 7.47110275 -7.20329132 6.53020294 -7.20336914 5.56079102 C-7.20558975 4.72806168 -7.20781036 3.89533234 -7.21009827 3.03736877 C-6.93862253 -1.26218547 -3.5420482 0.0128568 0 0 Z " fill="#1E1E1E" transform="translate(288.08984375,334.8671875)"/>
<path d="M0 0 C5.42641279 4.95455081 4.60099098 12.09022893 5 19 C5.15562246 23.12346933 5.22781906 27.24515859 5.28125 31.37109375 C5.29965942 32.49588638 5.31806885 33.62067902 5.33703613 34.77955627 C5.39507576 38.33215759 5.44817823 41.88480291 5.5 45.4375 C5.56845955 50.12378044 5.64101078 54.80995792 5.71875 59.49609375 C5.73581497 60.60848419 5.75287994 61.72087463 5.77046204 62.86697388 C5.8951949 69.73222666 6.24051699 76.4885768 7.0612793 83.30981445 C6.96167921 87.68229797 4.92043045 90.79608148 2.6171875 94.41015625 C1.02510413 96.95979701 -0.02596136 99.37342609 -1.0625 102.1875 C-2.58269193 106.20742177 -4.53774063 109.54497361 -6.90234375 113.1171875 C-8.53066858 115.91025714 -9.20602644 118.88518063 -10 122 C-10.66 122.99 -11.32 123.98 -12 125 C-12.66 125 -13.32 125 -14 125 C-14.26425781 125.88945312 -14.52851562 126.77890625 -14.80078125 127.6953125 C-15.9542986 130.87406065 -17.26291674 133.1180455 -19.1875 135.875 C-27.55209623 148.80368089 -31.48574835 162.63926832 -35.31347656 177.40673828 C-37.99851829 187.5491683 -41.37623461 197.35505722 -45.47265625 207.01171875 C-45.99157747 208.33734871 -46.49954469 209.66728904 -47 211 C-47.31372559 211.82274414 -47.62745117 212.64548828 -47.95068359 213.49316406 C-51.84428628 224.78217483 -52.96590035 236.58610164 -54.5 248.375 C-58.68765338 280.45003198 -58.68765338 280.45003198 -64.75 295.4375 C-65.17796875 296.50871094 -65.6059375 297.57992188 -66.046875 298.68359375 C-66.36140625 299.44800781 -66.6759375 300.21242188 -67 301 C-67.66 301 -68.32 301 -69 301 C-68.25811627 295.67890287 -67.00970107 290.85188883 -64.90426636 285.89749146 C-60.46664702 275.26080055 -59.18292154 264.49983626 -57.875 253.125 C-55.6561957 234.50939157 -52.97627754 216.90472053 -46.0625 199.375 C-45.17418569 197.04928178 -44.28875146 194.72246139 -43.40625 192.39453125 C-42.98859375 191.2957666 -42.5709375 190.19700195 -42.140625 189.06494141 C-39.10424616 180.9059731 -36.55704564 172.63027861 -34.6875 164.125 C-31.19080584 149.66675899 -23.33402084 136.07907172 -15.48046875 123.58203125 C-11.559599 117.30647939 -8.43890758 110.75397394 -5.33642578 104.04711914 C-3.21810781 99.48663799 -0.9794636 95.09477466 1.5625 90.75 C3.86045649 86.65557475 4.68187436 83.77312053 4 79 C3.82955673 78.41043518 3.65911346 77.82087036 3.48350525 77.21343994 C2.84456263 74.28842287 2.85102714 71.51670585 2.82641602 68.52246094 C2.81292618 67.20719421 2.79943634 65.89192749 2.78553772 64.5368042 C2.78047777 63.83610558 2.77541782 63.13540695 2.77020454 62.41347504 C2.75372208 60.20975088 2.73047953 58.0061923 2.70530701 55.80255127 C2.63474616 49.53821146 2.5745936 43.27380313 2.52319336 37.00927734 C2.49123929 33.17255579 2.44992132 29.33602454 2.40299797 25.49945831 C2.38707362 24.04357607 2.3747084 22.58765007 2.36609077 21.13170624 C2.32236935 13.84802877 2.24343869 6.99454705 0 0 Z " fill="#F3F3F3" transform="translate(90,146)"/>
<path d="M0 0 C3.22909006 -0.05834353 6.45804338 -0.09371115 9.6875 -0.125 C10.59951172 -0.14175781 11.51152344 -0.15851563 12.45117188 -0.17578125 C21.1559698 -0.23908887 21.1559698 -0.23908887 25 2 C26.63339047 5.26678094 25.95949795 8.77668152 25.83984375 12.37109375 C25.7930483 15.23457357 25.7930483 15.23457357 28 18 C27.83212317 21.2735982 27.23491985 22.71809618 25.125 25.25 C21.92208391 27.8876956 19.33620794 28.12316056 15.33203125 28.09765625 C14.43935547 28.09443359 13.54667969 28.09121094 12.62695312 28.08789062 C11.23379883 28.07532227 11.23379883 28.07532227 9.8125 28.0625 C8.87212891 28.05798828 7.93175781 28.05347656 6.96289062 28.04882812 C4.64186288 28.03704626 2.32096356 28.02059558 0 28 C-1.08266248 24.75201257 -1.03436186 22.64103173 -0.87890625 19.23828125 C-0.83056641 18.12001953 -0.78222656 17.00175781 -0.73242188 15.84960938 C-0.67634766 14.68236328 -0.62027344 13.51511719 -0.5625 12.3125 C-0.51029297 11.13365234 -0.45808594 9.95480469 -0.40429688 8.74023438 C-0.27453806 5.82655906 -0.13956868 2.91321922 0 0 Z M8 6 C7.01 7.485 7.01 7.485 6 9 C7.05978933 10.28612676 7.05978933 10.28612676 9.50390625 10.09765625 C10.51324219 10.08605469 11.52257812 10.07445312 12.5625 10.0625 C13.57441406 10.05347656 14.58632813 10.04445313 15.62890625 10.03515625 C16.41136719 10.02355469 17.19382812 10.01195312 18 10 C18.33 8.68 18.66 7.36 19 6 C17.20906809 5.91913853 15.41710372 5.86087298 13.625 5.8125 C12.62726563 5.77769531 11.62953125 5.74289062 10.6015625 5.70703125 C9.31378906 5.85205078 9.31378906 5.85205078 8 6 Z M7 16 C6.3185177 17.89179203 6.3185177 17.89179203 6 20 C7.97987811 22.41942686 7.97987811 22.41942686 11.8125 22.25 C15.25275166 22.17480324 17.88901279 21.55549361 21 20 C20.51294288 17.93597032 20.51294288 17.93597032 19 16 C14.71249148 14.94834697 11.25621291 14.83921466 7 16 Z " fill="#090909" transform="translate(248,262)"/>
<path d="M0 0 C3.4375 0.875 3.4375 0.875 4.63354492 2.55151367 C6.35227757 7.51877107 5.76370198 12.98896746 5.75 18.1875 C5.76611328 19.39857422 5.78222656 20.60964844 5.79882812 21.85742188 C5.80282266 29.15543014 5.79264633 35.16037371 0.6875 40.8125 C-2.59609437 42.36308623 -4.98156813 42.32261648 -8.5625 41.875 C-11.46967073 39.65636971 -12.40231643 38.35555071 -13.5625 34.875 C-13.81859828 31.27526706 -13.79384254 27.67038655 -13.8125 24.0625 C-13.833125 23.07701172 -13.85375 22.09152344 -13.875 21.07617188 C-13.91868439 12.94541517 -12.0247874 8.02007332 -6.5625 1.875 C-3.5625 -0.125 -3.5625 -0.125 0 0 Z M-1.5625 5.875 C-6.82010831 16.21903867 -6.72196517 25.41122639 -6.5625 36.875 C-5.5725 36.545 -4.5825 36.215 -3.5625 35.875 C0.14718826 26.91339353 -0.37664155 15.39508261 -0.5625 5.875 C-0.8925 5.875 -1.2225 5.875 -1.5625 5.875 Z " fill="#0F0F0F" transform="translate(67.5625,75.125)"/>
<path d="M0 0 C1.20462891 -0.02126953 1.20462891 -0.02126953 2.43359375 -0.04296875 C4.5625 0.1875 4.5625 0.1875 6.5625 2.1875 C6.77177429 4.04026794 6.77177429 4.04026794 6.71362305 6.31420898 C6.69667892 7.16526718 6.6797348 8.01632538 6.66227722 8.89317322 C6.63321793 9.81401199 6.60415863 10.73485077 6.57421875 11.68359375 C6.55156448 12.62807877 6.52891022 13.57256378 6.50556946 14.54566956 C6.45555578 16.54562809 6.40058215 18.54546775 6.34106445 20.54516602 C6.25048192 23.60870144 6.17568843 26.67230935 6.10351562 29.73632812 C6.05301564 31.67710782 6.00161335 33.61786428 5.94921875 35.55859375 C5.92623215 36.47740829 5.90324554 37.39622284 5.87956238 38.34288025 C5.85316177 39.19709061 5.82676117 40.05130096 5.79956055 40.93139648 C5.77798386 41.68259262 5.75640717 42.43378876 5.73417664 43.20774841 C5.5625 45.1875 5.5625 45.1875 4.5625 48.1875 C1.58037087 49.67856457 -1.15359658 49.30691467 -4.4375 49.1875 C-6.02431989 47.60068011 -5.56478536 45.97501654 -5.56689453 43.77539062 C-5.57162277 42.36888245 -5.57162277 42.36888245 -5.57644653 40.93395996 C-5.5744223 39.91419067 -5.57239807 38.89442139 -5.5703125 37.84375 C-5.57126923 36.80432251 -5.57222595 35.76489502 -5.57321167 34.69396973 C-5.57389363 32.49145446 -5.57203827 30.28893721 -5.56787109 28.08642578 C-5.56252308 24.70210281 -5.56781559 21.31791256 -5.57421875 17.93359375 C-5.57355797 15.79947887 -5.57227681 13.66536408 -5.5703125 11.53125 C-5.57233673 10.51148071 -5.57436096 9.49171143 -5.57644653 8.44104004 C-5.57329437 7.50336792 -5.57014221 6.5656958 -5.56689453 5.59960938 C-5.56609894 4.76989624 -5.56530334 3.94018311 -5.56448364 3.08532715 C-5.31825922 -0.59460665 -3.18753781 0.0255003 0 0 Z " fill="#0F0F0F" transform="translate(323.4375,334.8125)"/>
<path d="M0 0 C3.77919927 1.81961446 5.56575525 3.36964472 7.9375 6.8125 C9.25231648 10.75694944 9.09114779 12.99912476 8 17 C5.73953835 20.50761291 3.82216272 22.40975712 0 24 C-3.07395984 24.5224082 -5.92697162 24.54326752 -9 24 C-12.24795921 21.51220146 -14.69495964 18.91512108 -16 15 C-16.52718506 10.14989748 -15.56786682 7.12692882 -13 3 C-9.54082119 -0.99136016 -4.91070523 -0.75877216 0 0 Z " fill="#0B0B0B" transform="translate(291,84)"/>
<path d="M0 0 C3.7214544 2.18154223 6.08376502 3.88750443 7.65234375 8.01171875 C8.22783275 12.18961945 8.09738803 15.89910804 6.52734375 19.82421875 C3.10381775 23.81833242 -0.4287145 26.09705132 -5.59765625 27.07421875 C-11.13296781 27.47832469 -16.01856719 25.39970149 -20.34765625 22.01171875 C-22.76852064 17.4240313 -22.92072455 13.08614608 -22.34765625 8.01171875 C-20.79791912 3.9094734 -18.34625454 1.76020606 -14.43359375 -0.25390625 C-9.58012691 -1.96261742 -4.75682961 -2.00245905 0 0 Z M-15.34765625 8.01171875 C-17.63758309 10.82703932 -17.63758309 10.82703932 -17.28515625 14.01171875 C-16.59957287 17.11595538 -16.59957287 17.11595538 -14.22265625 18.88671875 C-10.62161358 20.2958224 -8.18795251 20.49175578 -4.34765625 20.01171875 C-0.84689428 18.0330272 0.36952004 16.81027982 1.71484375 13.01171875 C1.95065176 9.9157442 1.95065176 9.9157442 -0.16015625 7.69921875 C-5.36267353 3.68584828 -10.12421338 4.0941366 -15.34765625 8.01171875 Z " fill="#161616" transform="translate(301.34765625,262.98828125)"/>
<path d="M0 0 C1.32 0.66 2.64 1.32 4 2 C3.40574219 2.24105469 2.81148438 2.48210937 2.19921875 2.73046875 C-0.42771972 4.24690747 -1.48790419 5.81556294 -3.1875 8.3125 C-5.57515652 11.49939313 -7.39912362 13.49217214 -11 15.1875 C-18.20033508 18.70738936 -23.62076429 24.90944959 -29.32910156 30.41015625 C-31.31184989 32.29672216 -33.35620603 34.09808499 -35.4375 35.875 C-46.22436454 45.2174032 -56.35957113 54.57807825 -57.6875 69.375 C-59.25996622 82.15762861 -63.44946447 94.57584673 -67.60546875 106.73046875 C-68.96143586 110.75381624 -69.96459911 114.7937448 -70.875 118.9375 C-72.48364665 126.0305689 -74.33822666 133.03058448 -76.33740234 140.02319336 C-78.23065856 146.67225479 -79.14286195 152.39519083 -79.0625 159.3125 C-79.05798828 160.05306641 -79.05347656 160.79363281 -79.04882812 161.55664062 C-79.03712175 163.37112899 -79.01918898 165.18557534 -79 167 C-81.81824192 168.40912096 -84.17251282 168.11183553 -87.3203125 168.09765625 C-88.57714844 168.09443359 -89.83398438 168.09121094 -91.12890625 168.08789062 C-92.44761719 168.07951172 -93.76632813 168.07113281 -95.125 168.0625 C-96.46484211 168.05748489 -97.804686 168.05292201 -99.14453125 168.04882812 C-102.42973206 168.03701086 -105.71484397 168.02053617 -109 168 C-109.33 167.34 -109.66 166.68 -110 166 C-100.76 166 -91.52 166 -82 166 C-82.08121094 163.70289063 -82.16242188 161.40578125 -82.24609375 159.0390625 C-82.35358443 150.03373195 -80.46380329 141.99839055 -78.0625 133.375 C-77.65549093 131.85702335 -77.24975209 130.33870561 -76.84521484 128.82006836 C-73.48055451 116.30273081 -69.76999127 103.88732517 -65.9453125 91.50390625 C-62.27025684 79.63382958 -62.27025684 79.63382958 -60.625 67.375 C-58.97279379 47.7165465 -35.76598676 31.1590469 -21.75390625 19.19921875 C-18.17816207 16.23479582 -14.63889381 13.41773826 -10.75 10.875 C-6.65088476 8.0801487 -2.2511791 4.5023582 0 0 Z " fill="#ECECEC" transform="translate(122,287)"/>
<path d="M0 0 C2.5 0.125 2.5 0.125 3.5 1.125 C3.73882567 3.73439156 3.92294511 6.32256171 4.0625 8.9375 C4.10568359 9.66259766 4.14886719 10.38769531 4.19335938 11.13476562 C4.38576409 14.47283475 4.5 17.78027657 4.5 21.125 C8.13 20.795 11.76 20.465 15.5 20.125 C15.59087891 18.21074219 15.59087891 18.21074219 15.68359375 16.2578125 C15.76799568 14.58852984 15.85264386 12.91925963 15.9375 11.25 C15.97681641 10.40824219 16.01613281 9.56648438 16.05664062 8.69921875 C16.09853516 7.89355469 16.14042969 7.08789062 16.18359375 6.2578125 C16.22025146 5.51418457 16.25690918 4.77055664 16.29467773 4.00439453 C16.5 2.125 16.5 2.125 17.5 0.125 C19.48 0.125 21.46 0.125 23.5 0.125 C23.58745946 3.5206697 23.64054444 6.91604773 23.6875 10.3125 C23.71263672 11.27220703 23.73777344 12.23191406 23.76367188 13.22070312 C23.85655538 22.16848062 23.85655538 22.16848062 20.5 26.125 C16.05561891 28.95324251 10.58958414 28.66162831 5.5 28.125 C1.26666154 26.41365041 -0.6204899 24.25992221 -2.5 20.125 C-3.88614597 13.95034977 -3.83813668 7.43025464 -3.5 1.125 C-2.5 0.125 -2.5 0.125 0 0 Z " fill="#202020" transform="translate(316.5,261.875)"/>
<path d="M0 0 C4.22258974 1.28950722 4.53487463 1.70291773 6.609375 5.3359375 C7.48189664 7.07435067 8.3274977 8.82648553 9.1484375 10.58984375 C9.80392578 11.91725586 9.80392578 11.91725586 10.47265625 13.27148438 C11.59612684 15.55494705 12.68962647 17.84989215 13.7734375 20.15234375 C14.1034375 20.81234375 14.4334375 21.47234375 14.7734375 22.15234375 C14.8134295 24.15194387 14.81690549 26.15281617 14.7734375 28.15234375 C12.4609375 28.46484375 12.4609375 28.46484375 9.7734375 28.15234375 C7.95460741 25.76904915 6.7734375 24.19416038 6.7734375 21.15234375 C2.4834375 21.15234375 -1.8065625 21.15234375 -6.2265625 21.15234375 C-6.5565625 23.46234375 -6.8865625 25.77234375 -7.2265625 28.15234375 C-9.2065625 28.15234375 -11.1865625 28.15234375 -13.2265625 28.15234375 C-14.16208909 25.09957278 -14.42943717 23.62596389 -13.15234375 20.64453125 C-12.61996094 19.78085937 -12.08757812 18.9171875 -11.5390625 18.02734375 C-8.74029222 13.23689043 -6.75131922 8.52145027 -4.98828125 3.26953125 C-3.79166738 -0.05644165 -3.75757524 0.17741578 0 0 Z M-0.2265625 9.15234375 C-0.8865625 10.47234375 -1.5465625 11.79234375 -2.2265625 13.15234375 C-0.9065625 13.48234375 0.4134375 13.81234375 1.7734375 14.15234375 C1.4434375 12.50234375 1.1134375 10.85234375 0.7734375 9.15234375 C0.4434375 9.15234375 0.1134375 9.15234375 -0.2265625 9.15234375 Z " fill="#2F2F2F" transform="translate(229.2265625,261.84765625)"/>
<path d="M0 0 C3.35760581 0.44768077 4.83869562 1.44573119 7 4 C8.25910592 6.25741707 9.43305889 8.49289515 10.5625 10.8125 C10.86607422 11.41642578 11.16964844 12.02035156 11.48242188 12.64257812 C14.0319864 17.80280784 16 22.20444032 16 28 C14.1875 28.6875 14.1875 28.6875 12 29 C10.04884635 27.51712322 8.99913604 25.99856806 7.734375 23.90234375 C6.14186497 21.75747707 6.14186497 21.75747707 3.51953125 21.609375 C2.62621094 21.65578125 1.73289063 21.7021875 0.8125 21.75 C-0.53908203 21.80414063 -0.53908203 21.80414063 -1.91796875 21.859375 C-2.60503906 21.90578125 -3.29210937 21.9521875 -4 22 C-4.268125 22.78375 -4.53625 23.5675 -4.8125 24.375 C-6 27 -6 27 -9 29 C-11.1875 28.625 -11.1875 28.625 -13 28 C-12.51214834 24.0971867 -11.12375359 20.99922275 -9.31640625 17.53125 C-8.25955268 15.49908052 -7.23012453 13.45921924 -6.21484375 11.40625 C-5.74522217 10.45770142 -5.74522217 10.45770142 -5.26611328 9.48999023 C-4.63475902 8.21386585 -4.00421342 6.93734104 -3.37451172 5.66040039 C-1.11168764 1.11168764 -1.11168764 1.11168764 0 0 Z M1 10 C0.34 11.65 -0.32 13.3 -1 15 C0.65 14.67 2.3 14.34 4 14 C3.34 12.68 2.68 11.36 2 10 C1.67 10 1.34 10 1 10 Z " fill="#2D2D2D" transform="translate(200,207)"/>
<path d="M0 0 C0.66 0 1.32 0 2 0 C2 1.32 2 2.64 2 4 C-6.91538585 8.45769292 -22.6831186 6.16940715 -32.58374023 6.20532227 C-34.29036684 6.21492883 -35.99699121 6.22494041 -37.70361328 6.23532104 C-42.28727506 6.26207572 -46.87094683 6.28324233 -51.45464206 6.30332303 C-56.26324143 6.32536684 -61.07181107 6.35266451 -65.88038635 6.37937927 C-74.96406606 6.42905984 -84.04776249 6.47408882 -93.13147455 6.51740164 C-103.48231019 6.56698618 -113.83311598 6.62182482 -124.18392265 6.67708123 C-145.45592055 6.79052249 -166.72794702 6.8974422 -188 7 C-188.33 7.66 -188.66 8.32 -189 9 C-189.99 7.68 -190.98 6.36 -192 5 C-180.23008322 4.25038079 -168.51420481 3.84312234 -156.72167969 3.81054688 C-155.08345847 3.80257394 -153.44523925 3.79418378 -151.80702209 3.78541565 C-148.32219794 3.76757655 -144.83737752 3.75248739 -141.35253143 3.73963928 C-135.83820276 3.71916966 -130.32392303 3.69156189 -124.80963135 3.66296387 C-112.12802996 3.5982358 -99.44639299 3.54230121 -86.76474762 3.48697662 C-75.09679963 3.43604623 -63.42886997 3.38320979 -51.76096845 3.32245111 C-46.28159859 3.29418771 -40.8022346 3.27056516 -35.32282877 3.25052643 C-31.92133684 3.23712343 -28.51987396 3.21971482 -25.1184063 3.20121574 C-23.54383771 3.19347548 -21.96925992 3.18739903 -20.39467812 3.18312263 C-18.24319251 3.17705127 -16.09181863 3.16499177 -13.94036865 3.15148926 C-12.73776272 3.14633553 -11.53515678 3.14118179 -10.29610825 3.13587189 C-7.09271615 3.00382194 -4.12269953 2.73119851 -1 2 C-0.67 1.34 -0.34 0.68 0 0 Z " fill="#DCDCDC" transform="translate(443,406)"/>
<path d="M0 0 C0.515625 0.47050781 1.03125 0.94101562 1.5625 1.42578125 C0.46808594 1.22662109 0.46808594 1.22662109 -0.6484375 1.0234375 C-23.12986725 -2.77897716 -43.48253844 -0.79728556 -65.59082031 4.62353516 C-70.21776679 5.75134223 -74.79078907 6.65633787 -79.5078125 7.32421875 C-87.71223792 8.5299173 -95.70214426 10.52161112 -103.75 12.48828125 C-106.00486142 13.03812333 -108.26007472 13.58623374 -110.51664734 14.12901306 C-111.90569179 14.46317651 -113.29381313 14.80121339 -114.68074036 15.14405823 C-119.26039642 16.24662892 -123.76429751 16.9087005 -128.4375 17.42578125 C-134.10065458 33.17814811 -134.92930844 45.81372499 -132.4375 62.42578125 C-136.71728871 58.14599254 -136.70837988 53.48391492 -136.76635742 47.72094727 C-136.76095947 46.75729248 -136.75556152 45.7936377 -136.75 44.80078125 C-136.74653564 43.81327881 -136.74307129 42.82577637 -136.73950195 41.80834961 C-136.63741814 34.9777582 -136.04972836 28.80047845 -133.4375 22.42578125 C-133.19 21.24886719 -132.9425 20.07195313 -132.6875 18.859375 C-131.47107222 16.09726359 -130.63379183 15.50807486 -127.8059082 14.32250977 C-124.14411893 13.36724867 -120.46777942 12.61791808 -116.75 11.92578125 C-115.35436889 11.64313998 -113.9593541 11.35743999 -112.56494141 11.06884766 C-109.65239368 10.46910307 -106.73736195 9.88452403 -103.81982422 9.30957031 C-99.62578183 8.47481629 -95.45440987 7.55552454 -91.28515625 6.60546875 C-16.20481475 -10.46560953 -16.20481475 -10.46560953 0 0 Z " fill="#DEDEDE" transform="translate(220.4375,41.57421875)"/>
<path d="M0 0 C1.03688965 0.01047363 2.0737793 0.02094727 3.14208984 0.03173828 C4.26357422 0.03818359 5.38505859 0.04462891 6.54052734 0.05126953 C7.71615234 0.06802734 8.89177734 0.08478516 10.10302734 0.10205078 C11.87806641 0.11558594 11.87806641 0.11558594 13.68896484 0.12939453 C16.61885257 0.15302266 19.54834075 0.18596564 22.47802734 0.22705078 C22.86021501 1.88319735 23.19197836 3.55162102 23.47802734 5.22705078 C21.89530134 6.80977679 20.09768731 6.57440825 17.91552734 6.78955078 C17.08923828 6.87333984 16.26294922 6.95712891 15.41162109 7.04345703 C14.45449219 7.13433594 14.45449219 7.13433594 13.47802734 7.22705078 C13.48588257 8.12798462 13.48588257 8.12798462 13.49389648 9.04711914 C13.51460748 11.75291916 13.52766859 14.45870255 13.54052734 17.16455078 C13.54890625 18.11007812 13.55728516 19.05560547 13.56591797 20.02978516 C13.57075195 21.3784668 13.57075195 21.3784668 13.57568359 22.75439453 C13.58353882 24.00337524 13.58353882 24.00337524 13.59155273 25.27758789 C13.47802734 27.22705078 13.47802734 27.22705078 12.47802734 28.22705078 C10.81185619 28.2676891 9.1441464 28.26977178 7.47802734 28.22705078 C6.3037647 25.8785255 6.36294561 24.48931013 6.38037109 21.87548828 C6.38359375 21.02470703 6.38681641 20.17392578 6.39013672 19.29736328 C6.39851563 18.40791016 6.40689453 17.51845703 6.41552734 16.60205078 C6.42003906 15.70486328 6.42455078 14.80767578 6.42919922 13.88330078 C6.44100143 11.6644843 6.45746579 9.4458006 6.47802734 7.22705078 C5.85154297 7.20126953 5.22505859 7.17548828 4.57958984 7.14892578 C3.35369141 7.06384766 3.35369141 7.06384766 2.10302734 6.97705078 C1.29091797 6.93064453 0.47880859 6.88423828 -0.35791016 6.83642578 C-2.52197266 6.22705078 -2.52197266 6.22705078 -3.81103516 4.18017578 C-4.04564453 3.53564453 -4.28025391 2.89111328 -4.52197266 2.22705078 C-2.52197266 0.22705078 -2.52197266 0.22705078 0 0 Z " fill="#1A1A1A" transform="translate(347.52197265625,261.77294921875)"/>
<path d="M0 0 C1.65 0 3.3 0 5 0 C7.4662586 4.69718718 7.05341417 8.70151898 6.625 13.8125 C6.56828125 14.60076172 6.5115625 15.38902344 6.453125 16.20117188 C6.31249026 18.13489961 6.15766112 20.06758595 6 22 C10.95 22 15.9 22 21 22 C21.33 23.65 21.66 25.3 22 27 C21 28 21 28 18.86694336 28.11352539 C17.95050049 28.10828857 17.03405762 28.10305176 16.08984375 28.09765625 C15.10048828 28.09443359 14.11113281 28.09121094 13.09179688 28.08789062 C12.05087891 28.07951172 11.00996094 28.07113281 9.9375 28.0625 C8.89271484 28.05798828 7.84792969 28.05347656 6.77148438 28.04882812 C4.1809334 28.03699913 1.59049441 28.02051689 -1 28 C-1.94976853 24.84419907 -2.06485173 22.15177027 -1.9140625 18.8671875 C-1.87023437 17.89652344 -1.82640625 16.92585938 -1.78125 15.92578125 C-1.7296875 14.91902344 -1.678125 13.91226563 -1.625 12.875 C-1.58117187 11.86050781 -1.53734375 10.84601563 -1.4921875 9.80078125 C-1.13078746 2.26157493 -1.13078746 2.26157493 0 0 Z " fill="#2C2C2C" transform="translate(222,207)"/>
<path d="M0 0 C4.875 0.875 4.875 0.875 6 2 C6.01662231 3.4913391 5.963192 4.98360805 5.87890625 6.47265625 C5.83056641 7.37177734 5.78222656 8.27089844 5.73242188 9.19726562 C5.67634766 10.14279297 5.62027344 11.08832031 5.5625 12.0625 C5.51029297 13.01189453 5.45808594 13.96128906 5.40429688 14.93945312 C5.27418642 17.29326952 5.13920888 19.64670699 5 22 C6.12019531 21.97679687 7.24039062 21.95359375 8.39453125 21.9296875 C9.86718084 21.91092763 11.33983763 21.89272766 12.8125 21.875 C13.55048828 21.85824219 14.28847656 21.84148437 15.04882812 21.82421875 C18.91246426 21.78925372 20.70903668 21.80602445 24 24 C24 24.99 24 25.98 24 27 C21.44276771 28.27861615 19.63262898 28.11336609 16.7734375 28.09765625 C15.7421875 28.09443359 14.7109375 28.09121094 13.6484375 28.08789062 C12.02808594 28.07532227 12.02808594 28.07532227 10.375 28.0625 C8.74304688 28.05573242 8.74304688 28.05573242 7.078125 28.04882812 C4.38536211 28.03701776 1.69270812 28.02054778 -1 28 C-1.22556502 23.89658886 -1.42750038 19.79235012 -1.625 15.6875 C-1.68945312 14.52025391 -1.75390625 13.35300781 -1.8203125 12.15039062 C-1.871875 11.03212891 -1.9234375 9.91386719 -1.9765625 8.76171875 C-2.02893066 7.73006592 -2.08129883 6.69841309 -2.13525391 5.63549805 C-2 3 -2 3 0 0 Z " fill="#444444" transform="translate(249,207)"/>
<path d="M0 0 C0.99 0.66 1.98 1.32 3 2 C2.154375 1.93039063 1.30875 1.86078125 0.4375 1.7890625 C-6.34816892 1.46520103 -11.25819285 1.43926963 -16.48046875 6.08984375 C-22.46074487 13.60746592 -22.20422582 24.55924928 -22.4296875 33.72265625 C-22.63338141 38.4670269 -23.31491975 41.92946738 -26 46 C-29.51742458 48.87338909 -34.04202664 48.30259233 -38.375 48.25 C-39.17139893 48.24323242 -39.96779785 48.23646484 -40.78833008 48.22949219 C-61.3433258 47.87605229 -61.3433258 47.87605229 -69 42 C-69.495 40.515 -69.495 40.515 -70 39 C-69.34 39 -68.68 39 -68 39 C-67.58621094 39.46019531 -67.17242187 39.92039063 -66.74609375 40.39453125 C-60.61257055 46.03407942 -48.27538681 45.28165873 -40.375 45.3125 C-39.51011963 45.31789795 -38.64523926 45.3232959 -37.75415039 45.32885742 C-32.10596831 45.26957278 -32.10596831 45.26957278 -27 43 C-24.3420466 37.7009691 -24.75995462 32.03810271 -24.6875 26.25 C-24.44882384 18.26252245 -24.17719325 11.48212963 -19 5 C-18.60167969 4.44183594 -18.20335937 3.88367188 -17.79296875 3.30859375 C-13.32998871 -1.63978593 -6.05008 -0.76736662 0 0 Z " fill="#F0F0F0" transform="translate(152,68)"/>
<path d="M0 0 C0.66 0 1.32 0 2 0 C2 1.32 2 2.64 2 4 C-7.07231274 8.53615637 -23.05243379 6.13101978 -33.08984375 6.09765625 C-34.77234352 6.09578534 -36.45484384 6.09436463 -38.13734436 6.09336853 C-42.51180594 6.08959625 -46.88623298 6.07981284 -51.26068115 6.06866455 C-55.74604831 6.05833502 -60.23142119 6.05384648 -64.71679688 6.04882812 C-73.47788023 6.03818442 -82.23893579 6.0211737 -91 6 C-88.11764353 3.11764353 -85.2026268 3.70005444 -81.34082031 3.69702148 C-80.55037323 3.68858215 -79.75992615 3.68014282 -78.94552612 3.67144775 C-76.32305319 3.64558469 -73.70069314 3.63350611 -71.078125 3.62109375 C-69.25688787 3.60492201 -67.43565944 3.58774235 -65.61444092 3.56959534 C-60.8097741 3.52382048 -56.0050956 3.48907206 -51.20031738 3.45739746 C-43.52355333 3.40562401 -35.84691852 3.3401864 -28.17031097 3.26918221 C-25.49044404 3.24641086 -22.81059314 3.23009456 -20.13067627 3.21446228 C-18.4793684 3.20104646 -16.82806213 3.18743088 -15.17675781 3.17358398 C-14.434711 3.17097061 -13.69266418 3.16835724 -12.9281311 3.16566467 C-8.86162413 3.12531942 -4.96290131 2.95389574 -1 2 C-0.67 1.34 -0.34 0.68 0 0 Z " fill="#FEFEFE" transform="translate(443,406)"/>
<path d="M0 0 C0.33 0 0.66 0 1 0 C2.13664335 5.3990559 2.24332126 10.51484369 2 16 C1.91685547 17.91232422 1.91685547 17.91232422 1.83203125 19.86328125 C1.21212898 28.87231772 -0.693155 35.80323842 -5.43164062 43.55908203 C-7.509014 47.1140106 -8.06320281 48.65664539 -7.3046875 52.77734375 C-6.87414062 53.84082031 -6.44359375 54.90429688 -6 56 C-5.62875 56.969375 -5.2575 57.93875 -4.875 58.9375 C-4.58625 59.618125 -4.2975 60.29875 -4 61 C-7.99025743 57.27575973 -9.821154 55.00307518 -10.3125 49.5 C-9.98892624 45.87597385 -9.47114386 44.57410819 -7 42 C-7.99 41.67 -8.98 41.34 -10 41 C-10.49196648 35.09640219 -9.31411786 30.95908147 -6 26 C-5.34 25.67 -4.68 25.34 -4 25 C-4.65419099 30.06998019 -6.8546409 34.41990777 -9 39 C-7.515 38.505 -7.515 38.505 -6 38 C-4.78091897 35.61802513 -4.78091897 35.61802513 -3.875 32.75 C-3.54242188 31.79609375 -3.20984375 30.8421875 -2.8671875 29.859375 C-1.53190514 25.45655207 -0.87166495 21.29352949 -0.68359375 16.69921875 C-0.64169922 15.72275391 -0.59980469 14.74628906 -0.55664062 13.74023438 C-0.51732422 12.73283203 -0.47800781 11.72542969 -0.4375 10.6875 C-0.39431641 9.66076172 -0.35113281 8.63402344 -0.30664062 7.57617188 C-0.20093175 5.05090431 -0.09883532 2.52554438 0 0 Z " fill="#EBEBEB" transform="translate(170,72)"/>
<path d="M0 0 C0.66 0.33 1.32 0.66 2 1 C2.04992909 5.10762763 2.08596646 9.21513448 2.10986328 13.32299805 C2.1198393 14.71658409 2.13342501 16.11014966 2.15087891 17.50366211 C2.36755692 35.26488616 2.36755692 35.26488616 -1 42 C-1.66 42 -2.32 42 -3 42 C-3.33 42.99 -3.66 43.98 -4 45 C-10.77965032 48.59736548 -16.82559745 49.83523466 -24.25 47.6875 C-27.29656587 46.693 -30.26056697 45.67881183 -33 44 C-33.495 42.515 -33.495 42.515 -34 41 C-33.34 41 -32.68 41 -32 41 C-32 41.66 -32 42.32 -32 43 C-24.60558312 45.82495987 -15.37441873 46.6562985 -7.8125 43.8125 C-4.65285359 41.77628342 -3.44533166 40.45273673 -2 37 C-1.09134398 32.53126598 -0.81530315 28.18619454 -0.68359375 23.6328125 C-0.66281265 22.95322479 -0.64203156 22.27363708 -0.62062073 21.57345581 C-0.5557637 19.42406334 -0.49654059 17.2745593 -0.4375 15.125 C-0.39425388 13.6588431 -0.35063775 12.19269706 -0.30664062 10.7265625 C-0.20014896 7.15115725 -0.09870591 3.57562963 0 0 Z " fill="#F1F1F1" transform="translate(226,335)"/>
<path d="M0 0 C2.78310362 2.78310362 2.71612202 4.91593437 3.0390625 8.7578125 C2.97433757 14.12998209 1.92464173 19.30057171 0.88671875 24.55859375 C0.67619873 25.62992554 0.67619873 25.62992554 0.46142578 26.72290039 C0.14371356 28.29078499 -0.19234848 29.85502616 -0.54345703 31.41577148 C-2.12496832 38.96363658 -2.30639923 46.3752756 -2.26074219 54.05004883 C-2.25010239 56.1671267 -2.26065308 58.28333973 -2.2734375 60.40039062 C-2.28184148 70.06622565 -1.40870751 79.44148631 0 89 C-5.95600002 83.04399998 -4.30951419 70.71428165 -4.32226562 62.83007812 C-4.32009033 61.9619751 -4.31791504 61.09387207 -4.31567383 60.19946289 C-4.31254433 57.59933279 -4.33592269 55.00037823 -4.36132812 52.40039062 C-4.40709251 39.97646286 -3.96300996 26.88902989 0 15 C0.07029121 12.42734182 0.09370832 9.88358569 0.0625 7.3125 C0.05798828 6.61060547 0.05347656 5.90871094 0.04882812 5.18554688 C0.03706927 3.45699462 0.01913454 1.72848635 0 0 Z " fill="#F2F2F2" transform="translate(166,133)"/>
<path d="M0 0 C1.81345777 3.10556239 2.04527959 3.75439251 1.35546875 7.49609375 C0.98060061 8.81409304 0.59074778 10.12790484 0.1875 11.4375 C-1.90812828 18.61343926 -3.14973959 24.80318433 -3.0625 32.3125 C-3.05798828 33.05306641 -3.05347656 33.79363281 -3.04882812 34.55664062 C-3.03712175 36.37112899 -3.01918898 38.18557534 -3 40 C-5.81824192 41.40912096 -8.17251282 41.11183553 -11.3203125 41.09765625 C-12.57714844 41.09443359 -13.83398438 41.09121094 -15.12890625 41.08789062 C-16.44761719 41.07951172 -17.76632813 41.07113281 -19.125 41.0625 C-20.46484211 41.05748489 -21.804686 41.05292201 -23.14453125 41.04882812 C-26.42973206 41.03701086 -29.71484397 41.02053617 -33 41 C-33.33 40.34 -33.66 39.68 -34 39 C-24.76 39 -15.52 39 -6 39 C-6.12375 36.834375 -6.2475 34.66875 -6.375 32.4375 C-6.67175775 21.24152992 -3.15259311 10.63161719 0 0 Z " fill="#DCDCDC" transform="translate(46,414)"/>
<path d="M0 0 C0.33 0 0.66 0 1 0 C1.92802925 11.41991553 -1.99584392 21.1408148 -6.765625 31.328125 C-10.89751671 40.27183996 -12.68591682 48.12208393 -13 58 C-13.66 57.67 -14.32 57.34 -15 57 C-16.19667387 42.71969185 -10.59754154 31.13024583 -4.75 18.52148438 C-2.02351721 12.47374553 -0.52091619 6.64168144 0 0 Z " fill="#E8E8E8" transform="translate(52,65)"/>
<path d="M0 0 C0.99 0.66 1.98 1.32 3 2 C2.67 3.98 2.34 5.96 2 8 C-2.7260452 8.28934971 -6.20711666 8.34176006 -10.625 6.4375 C-14.67965908 4.71051558 -16.79345698 4.78657413 -21 6 C-24.19364022 9.19364022 -24.45612624 11.96347371 -24.6875 16.375 C-24.78611328 18.02628906 -24.78611328 18.02628906 -24.88671875 19.7109375 C-24.99348021 22.81070121 -25.0234236 25.89871517 -25 29 C-27.45389758 25.31915364 -27.3672715 22.44976696 -27.375 18.1875 C-27.39949219 17.48818359 -27.42398437 16.78886719 -27.44921875 16.06835938 C-27.47804411 10.93264062 -26.2913545 8.11734576 -23 4 C-21.285532 2.285532 -19.08657934 2.78748523 -16.75 2.75 C-12.14277116 2.76783443 -9.86387874 3.46087968 -6 6 C-2.76443801 5.78150791 -2.76443801 5.78150791 0 5 C0 3.35 0 1.7 0 0 Z " fill="#F3F3F3" transform="translate(424,340)"/>
<path d="M0 0 C-1.16982422 0.32677734 -1.16982422 0.32677734 -2.36328125 0.66015625 C-5.17817925 1.77275621 -5.17817925 1.77275621 -6.29296875 4.43359375 C-7.24003295 7.61390978 -8.1644995 10.78830542 -9 14 C-9.23976563 14.89460938 -9.47953125 15.78921875 -9.7265625 16.7109375 C-11.98927936 26.75740037 -10.51064548 36.92903011 -9 47 C-13.27978871 42.72021129 -13.27087988 38.05813367 -13.32885742 32.29516602 C-13.32345947 31.33151123 -13.31806152 30.36785645 -13.3125 29.375 C-13.30903564 28.38749756 -13.30557129 27.39999512 -13.30200195 26.38256836 C-13.1995848 19.52967235 -12.56664954 13.41076393 -10 7 C-9.74863281 6.28457031 -9.49726562 5.56914063 -9.23828125 4.83203125 C-8.5 2.875 -8.5 2.875 -7 0 C-3.86650268 -1.04449911 -3.01031744 -0.93423645 0 0 Z " fill="#EDEDED" transform="translate(97,57)"/>
<path d="M0 0 C0.66 0.33 1.32 0.66 2 1 C3.74323549 6.22970647 3.2270729 11.77615441 3.25 17.25 C3.270625 18.46558594 3.29125 19.68117188 3.3125 20.93359375 C3.37066618 34.26819101 3.37066618 34.26819101 -1.75 39.9375 C-4.88676811 41.41875161 -7.58190283 41.19719791 -11 41 C-11 40.67 -11 40.34 -11 40 C-9.906875 39.7525 -8.81375 39.505 -7.6875 39.25 C-3.88668091 37.96158675 -2.82618485 37.44946027 -1 34 C0.20993045 30.35816695 0.11381975 26.86146203 0.09765625 23.046875 C0.09553383 22.05654266 0.09553383 22.05654266 0.09336853 21.04620361 C0.08779245 18.94742206 0.07524447 16.84874905 0.0625 14.75 C0.0574819 13.32291821 0.05291954 11.89583475 0.04882812 10.46875 C0.03783088 6.97913168 0.0205828 3.48957644 0 0 Z " fill="#EEEEEE" transform="translate(70,76)"/>
<path d="M0 0 C0.66 0.33 1.32 0.66 2 1 C1.88183315 7.06906451 1.75759036 13.13796248 1.62768555 19.20678711 C1.58434197 21.27185676 1.54266648 23.33696212 1.50268555 25.40209961 C1.44496917 28.36843635 1.38127849 31.33459345 1.31640625 34.30078125 C1.29133751 35.68841423 1.29133751 35.68841423 1.26576233 37.1040802 C1.24581711 37.96474594 1.22587189 38.82541168 1.20532227 39.7121582 C1.18977798 40.46938675 1.1742337 41.2266153 1.15821838 42.00679016 C1 44 1 44 0 47 C-2.95664519 48.4783226 -5.74229737 48.06032783 -9 48 C-9.33 47.34 -9.66 46.68 -10 46 C-5.545 45.505 -5.545 45.505 -1 45 C-1.01160156 43.7625 -1.02320313 42.525 -1.03515625 41.25 C-1.12120925 27.47479736 -0.6753979 13.75763975 0 0 Z " fill="#F6F6F6" transform="translate(328,336)"/>
<path d="M0 0 C-0.66 0.33 -1.32 0.66 -2 1 C-2.99 0.67 -3.98 0.34 -5 0 C-12.4117491 -0.67687206 -18.3266139 1.50690719 -25.25 4 C-27.37830961 4.75537128 -29.50845301 5.5056008 -31.640625 6.25 C-32.57422852 6.58515625 -33.50783203 6.9203125 -34.46972656 7.265625 C-37 8 -37 8 -41 8 C-41 7.34 -41 6.68 -41 6 C-37.10582522 4.68254324 -33.2093878 3.37190802 -29.3125 2.0625 C-28.20970703 1.68931641 -27.10691406 1.31613281 -25.97070312 0.93164062 C-24.90400391 0.57392578 -23.83730469 0.21621094 -22.73828125 -0.15234375 C-21.75899658 -0.48226318 -20.77971191 -0.81218262 -19.77075195 -1.15209961 C-12.33452487 -3.42772007 -6.94555019 -3.96888582 0 0 Z " fill="#DEDEDE" transform="translate(235,22)"/>
<path d="M0 0 C6.93 0 13.86 0 21 0 C21 0.66 21 1.32 21 2 C14.73 2.33 8.46 2.66 2 3 C1.67 9.93 1.34 16.86 1 24 C-2.3 24 -5.6 24 -9 24 C-9 23.34 -9 22.68 -9 22 C-6.03 22 -3.06 22 0 22 C0 14.74 0 7.48 0 0 Z " fill="#EDEDED" transform="translate(148,360)"/>
<path d="M0 0 C0.33 0 0.66 0 1 0 C1.08745946 3.3956697 1.14054444 6.79104773 1.1875 10.1875 C1.21263672 11.14720703 1.23777344 12.10691406 1.26367188 13.09570312 C1.35655538 22.04348062 1.35655538 22.04348062 -2 26 C-6.42249287 28.81431365 -11.93144418 28.57332845 -17 28 C-20.125 26.5 -20.125 26.5 -22 25 C-21.34 24.67 -20.68 24.34 -20 24 C-19.01 24.33 -18.02 24.66 -17 25 C-11.4818358 25.36184683 -7.66821407 25.33443862 -3 22 C-0.93836062 17.24677586 -0.59617406 12.72121908 -0.375 7.625 C-0.33632813 6.88894531 -0.29765625 6.15289062 -0.2578125 5.39453125 C-0.16442002 3.59672594 -0.0811629 1.79839892 0 0 Z " fill="#EEEEEE" transform="translate(339,262)"/>
<path d="M0 0 C1.32 0.33 2.64 0.66 4 1 C3.67 2.65 3.34 4.3 3 6 C-1.455 6.495 -1.455 6.495 -6 7 C-5.98839844 8.43214844 -5.97679687 9.86429687 -5.96484375 11.33984375 C-5.95546745 13.20572787 -5.94636708 15.07161339 -5.9375 16.9375 C-5.92912109 17.88302734 -5.92074219 18.82855469 -5.91210938 19.80273438 C-5.90888672 20.70185547 -5.90566406 21.60097656 -5.90234375 22.52734375 C-5.89710693 23.35999756 -5.89187012 24.19265137 -5.88647461 25.05053711 C-6 27 -6 27 -7 28 C-8.66617115 28.04063832 -10.33388095 28.042721 -12 28 C-12 27.34 -12 26.68 -12 26 C-10.68 26 -9.36 26 -8 26 C-8 18.74 -8 11.48 -8 4 C-4.7 4 -1.4 4 2 4 C2 3.01 2 2.02 2 1 C1.34 0.67 0.68 0.34 0 0 Z " fill="#FDFDFD" transform="translate(367,262)"/>
<path d="M0 0 C2.3941161 2.3941161 2.29598923 3.03786311 2.3125 6.3125 C2.20202951 10.36741681 1.71099858 12.83716833 -1 16 C-4.99050042 19.42042893 -8.52823672 20.77283892 -13.67578125 21.18359375 C-17.62100159 20.8719545 -20.70569007 19.09148287 -24 17 C-23.34 16.67 -22.68 16.34 -22 16 C-21.39027344 16.31324219 -20.78054688 16.62648438 -20.15234375 16.94921875 C-16.47574 18.74414871 -12.89152846 17.8493139 -9 17 C-5.25428243 15.2899985 -3.19299673 13.45655163 -1 10 C-0.43015552 7.42126391 -0.43015552 7.42126391 -0.3125 4.75 C-0.24675781 3.85796875 -0.18101562 2.9659375 -0.11328125 2.046875 C-0.07589844 1.37140625 -0.03851563 0.6959375 0 0 Z " fill="#F0F0F0" transform="translate(307,269)"/>
<path d="M0 0 C8 0 8 0 10 1.5 C10.33 1.995 10.66 2.49 11 3 C8.36 2.67 5.72 2.34 3 2 C2.96261719 3.27617187 2.92523438 4.55234375 2.88671875 5.8671875 C2.82107209 7.53648838 2.7546243 9.20575789 2.6875 10.875 C2.65366211 12.13763672 2.65366211 12.13763672 2.61914062 13.42578125 C2.58369141 14.23144531 2.54824219 15.03710938 2.51171875 15.8671875 C2.48553467 16.61081543 2.45935059 17.35444336 2.43237305 18.12060547 C2 20 2 20 -1 22 C-4.125 22.1875 -4.125 22.1875 -7 22 C-8 21 -8 21 -8.0625 17.9375 C-8.041875 16.968125 -8.02125 15.99875 -8 15 C-7.67 15 -7.34 15 -7 15 C-7 16.65 -7 18.3 -7 20 C-5.02 19.67 -3.04 19.34 -1 19 C-0.67 12.73 -0.34 6.46 0 0 Z " fill="#D7D7D7" transform="translate(246,362)"/>
<path d="M0 0 C0.33 0 0.66 0 1 0 C1 4.95 1 9.9 1 15 C1.66 15 2.32 15 3 15 C4.6493148 25.2707331 3.89669482 31.39401297 -2 40 C-2.33 40.66 -2.66 41.32 -3 42 C-3.66 42 -4.32 42 -5 42 C-3.98464581 38.5308732 -2.80924265 35.59418529 -0.875 32.5625 C1.25912849 28.97652944 1.39474637 26.18431157 1 22 C0.83056885 21.36094727 0.6611377 20.72189453 0.48657227 20.06347656 C-0.03354439 17.8577435 -0.11382427 15.93539764 -0.09765625 13.671875 C-0.09282227 12.47304687 -0.09282227 12.47304687 -0.08789062 11.25 C-0.07951172 10.425 -0.07113281 9.6 -0.0625 8.75 C-0.05798828 7.90953125 -0.05347656 7.0690625 -0.04882812 6.203125 C-0.03707961 4.13538599 -0.01914522 2.06768376 0 0 Z " fill="#F2F2F2" transform="translate(93,203)"/>
<path d="M0 0 C2.3265812 2.3265812 2.34237251 2.88971833 2.4375 6.0625 C2.32056797 11.63925826 0.09773098 15.48435717 -3 20 C-3.556875 20.845625 -4.11375 21.69125 -4.6875 22.5625 C-8.57313701 24.97789598 -12.57029115 24.70549727 -17 24 C-19.65124143 22.91134865 -21.62678654 21.6509311 -24 20 C-23.01 19.67 -22.02 19.34 -21 19 C-20.0925 19.495 -19.185 19.99 -18.25 20.5 C-14.10774042 22.41181211 -12.32228504 22.46648957 -8 21 C-3.05959186 16.12742355 0.07615317 10.66038476 0.125 3.6875 C0.08375 2.470625 0.0425 1.25375 0 0 Z " fill="#F4F4F4" transform="translate(246,24)"/>
<path d="M0 0 C2.58974814 2.26688829 2.96856311 2.75748684 3.4375 6.375 C2.92017772 10.66138462 2.15335979 12.08920634 -1 15 C-6.06333891 17.8791535 -11.25890076 19.43037626 -17 18 C-20.02204842 15.98195437 -22.5208996 13.64797645 -25 11 C-24.01 11 -23.02 11 -22 11 C-21.505 11.66 -21.01 12.32 -20.5 13 C-16.96981018 15.82415185 -14.11932594 15.55194181 -9.703125 15.3984375 C-5.79509783 14.82239881 -3.92652229 13.61846731 -1 11 C0.20272819 8.59454362 0.10071472 7.05003047 0.0625 4.375 C0.05347656 3.55773437 0.04445313 2.74046875 0.03515625 1.8984375 C0.02355469 1.27195312 0.01195312 0.64546875 0 0 Z " fill="#DCDCDC" transform="translate(281,431)"/>
<path d="M0 0 C0.99 0.33 1.98 0.66 3 1 C1.97460938 3.39257812 1.97460938 3.39257812 0.94921875 5.78515625 C0.63597656 6.51605469 0.32273437 7.24695313 0 8 C-0.5053125 9.0003125 -1.010625 10.000625 -1.53125 11.03125 C-3.64637611 15.96654427 -3.81160495 21.13703487 -4.1875 26.4375 C-4.26935547 27.45521484 -4.35121094 28.47292969 -4.43554688 29.52148438 C-4.63445536 32.01369063 -4.82230487 34.50620673 -5 37 C-5.33 37 -5.66 37 -6 37 C-7.02547023 12.17415464 -7.02547023 12.17415464 -1 2 C-0.67 1.34 -0.34 0.68 0 0 Z " fill="#ECECEC" transform="translate(66,75)"/>
<path d="M0 0 C-0.33 0.99 -0.66 1.98 -1 3 C-7.85925527 6.28906913 -15.77858286 6.42527335 -23.24804688 6.62158203 C-27.00629343 6.74495881 -28.79543826 6.86362551 -32 9 C-33.19232613 11.05003955 -33.19232613 11.05003955 -34 13 C-34.6875 10.6875 -34.6875 10.6875 -35 8 C-33.46760532 5.93451772 -32.48594193 5.11387259 -29.96630859 4.5234375 C-29.20141113 4.47445312 -28.43651367 4.42546875 -27.6484375 4.375 C-26.79636719 4.30796875 -25.94429687 4.2409375 -25.06640625 4.171875 C-23.73416016 4.08679687 -23.73416016 4.08679687 -22.375 4 C-16.16718517 3.59293017 -10.73637139 2.84664075 -4.89697266 0.62109375 C-3 0 -3 0 0 0 Z " fill="#EFEFEF" transform="translate(85,52)"/>
<path d="M0 0 C0.66 0.33 1.32 0.66 2 1 C2.125 3.375 2.125 3.375 2 6 C0 8 0 8 -2.88916016 8.22705078 C-4.09362793 8.21657715 -5.2980957 8.20610352 -6.5390625 8.1953125 C-8.49199219 8.18564453 -8.49199219 8.18564453 -10.484375 8.17578125 C-11.86458595 8.15906929 -13.24479429 8.14213939 -14.625 8.125 C-16.01301452 8.11497006 -17.40103589 8.10584423 -18.7890625 8.09765625 C-22.19288026 8.07401863 -25.59635506 8.04106867 -29 8 C-29 7.34 -29 6.68 -29 6 C-19.76 5.67 -10.52 5.34 -1 5 C-0.67 3.35 -0.34 1.7 0 0 Z " fill="#DFDFDF" transform="translate(310,375)"/>
<path d="M0 0 C1.12664062 0.01289062 2.25328125 0.02578125 3.4140625 0.0390625 C6.375 0.375 6.375 0.375 9.375 2.375 C8.529375 2.30539063 7.68375 2.23578125 6.8125 2.1640625 C0.18268119 1.84763933 -4.88783604 1.7421357 -10.04296875 6.24609375 C-12.66066003 9.76866597 -13.7287494 13.65700122 -14.8359375 17.86328125 C-15.09632813 18.69214844 -15.35671875 19.52101563 -15.625 20.375 C-16.285 20.705 -16.945 21.035 -17.625 21.375 C-17.4190729 13.28768128 -15.17186857 7.84209471 -9.3671875 2.16796875 C-5.99137041 -0.03929627 -3.99935981 -0.10113324 0 0 Z " fill="#EFEFEF" transform="translate(145.625,67.625)"/>
<path d="M0 0 C1.5625 1.1875 1.5625 1.1875 3 3 C2.91553648 6.29407728 2.23887876 7.71334549 0.125 10.25 C-3.07791609 12.8876956 -5.66379206 13.12316056 -9.66796875 13.09765625 C-10.56064453 13.09443359 -11.45332031 13.09121094 -12.37304688 13.08789062 C-13.76620117 13.07532227 -13.76620117 13.07532227 -15.1875 13.0625 C-16.59805664 13.05573242 -16.59805664 13.05573242 -18.03710938 13.04882812 C-20.35813712 13.03704626 -22.67903644 13.02059558 -25 13 C-25 12.34 -25 11.68 -25 11 C-23.69804687 10.97421875 -22.39609375 10.9484375 -21.0546875 10.921875 C-19.32809244 10.86557299 -17.60153124 10.80822613 -15.875 10.75 C-15.0190625 10.73582031 -14.163125 10.72164063 -13.28125 10.70703125 C-7.65484273 10.49063097 -4.2503051 9.80871496 0 6 C0.50169415 2.83073436 0.50169415 2.83073436 0 0 Z " fill="#ECECEC" transform="translate(273,277)"/>
<path d="M0 0 C0.66 0 1.32 0 2 0 C0.13024217 6.0029067 -2.13221986 11.58371201 -4.80078125 17.2734375 C-6.24454527 20.55600196 -7.32624813 23.87945675 -8.32421875 27.3203125 C-9 29 -9 29 -11 30 C-10.4633481 23.88216839 -8.51983494 18.91000454 -6.0625 13.3125 C-5.70220703 12.47138672 -5.34191406 11.63027344 -4.97070312 10.76367188 C-3.40345104 7.12406805 -1.79703886 3.53279804 0 0 Z " fill="#EAEAEA" transform="translate(66,284)"/>
<path d="M0 0 C1.90688259 2.72120968 2.02022971 3.87093759 1.49609375 7.21484375 C1.14675781 8.44332031 0.79742187 9.67179687 0.4375 10.9375 C0.25348633 11.59049072 0.06947266 12.24348145 -0.12011719 12.91625977 C-2.01195324 19.43144724 -4.41901955 25.72737127 -7 32 C-7.66 32 -8.32 32 -9 32 C-8.00145941 24.83805369 -5.79554858 18.38790248 -3.12060547 11.7109375 C-1.58046687 7.81194997 -0.52343711 4.16164813 0 0 Z " fill="#E8E8E8" transform="translate(30,415)"/>
<path d="M0 0 C0.66 0.33 1.32 0.66 2 1 C2.05797565 4.93743833 2.09358789 8.87476719 2.125 12.8125 C2.14175781 13.93205078 2.15851563 15.05160156 2.17578125 16.20507812 C2.18222656 17.27822266 2.18867188 18.35136719 2.1953125 19.45703125 C2.20578613 20.44678955 2.21625977 21.43654785 2.22705078 22.45629883 C2 25 2 25 0 28 C-2.31 27.67 -4.62 27.34 -7 27 C-7 26.67 -7 26.34 -7 26 C-5.02 25.67 -3.04 25.34 -1 25 C-0.67 16.75 -0.34 8.5 0 0 Z " fill="#F4F4F4" transform="translate(426,356)"/>
<path d="M0 0 C3.25775431 2.67302918 5.31192188 4.77738086 6.0625 8.9375 C6.27886707 12.21391561 5.90581962 13.19198308 4.375 16.3125 C1.3900073 19.69025489 -0.6772067 21.82403081 -5.3203125 22.17578125 C-7.55614472 22.18629457 -9.7683764 22.13127198 -12 22 C-12.33 21.34 -12.66 20.68 -13 20 C-11.96875 20.061875 -10.9375 20.12375 -9.875 20.1875 C-5.65401773 19.98325892 -3.50836251 19.31232984 0 17 C2.25489243 14.21896601 2.93964576 12.49289298 3.375 8.9375 C2.95906692 5.67935751 2.09846713 4.44821166 0 2 C0 1.34 0 0.68 0 0 Z " fill="#EFEFEF" transform="translate(294,86)"/>
<path d="M0 0 C3 1 3 1 4.1640625 2.75 C5.65396071 6.76019331 5.58790341 10.79369106 5 15 C3.11484777 17.57637471 1.80665143 18.59667428 -1 20 C-1.65213292 22.02463255 -1.65213292 22.02463255 -2 24 C-2.66 22.35 -3.32 20.7 -4 19 C-3.195625 18.38125 -2.39125 17.7625 -1.5625 17.125 C1.03874519 15.25835959 1.03874519 15.25835959 2 13 C2.19758231 10.92435324 2.19758231 10.92435324 2.1875 8.625 C2.20167969 7.85414063 2.21585937 7.08328125 2.23046875 6.2890625 C1.97801607 3.78165112 1.25193467 2.16738098 0 0 Z " fill="#ECECEC" transform="translate(267,339)"/>
<path d="M0 0 C-3.32176381 3.32176381 -7.89267616 3.63863622 -12.375 4.6875 C-13.3340625 4.92533203 -14.293125 5.16316406 -15.28125 5.40820312 C-16.20679687 5.62798828 -17.13234375 5.84777344 -18.0859375 6.07421875 C-19.3551001 6.37718872 -19.3551001 6.37718872 -20.64990234 6.6862793 C-23.09571951 7.01277785 -24.67500748 6.76616786 -27 6 C-24.23071995 4.1538133 -22.86301194 3.58803803 -19.7265625 2.9296875 C-18.9015625 2.75566406 -18.0765625 2.58164062 -17.2265625 2.40234375 C-16.36804688 2.22832031 -15.50953125 2.05429687 -14.625 1.875 C-13.77421875 1.69324219 -12.9234375 1.51148438 -12.046875 1.32421875 C-7.98193981 0.48210601 -4.1761567 -0.25778745 0 0 Z " fill="#F2F2F2" transform="translate(123,51)"/>
<path d="M0 0 C11.85714286 -0.42857143 11.85714286 -0.42857143 16 3 C15.67 3.66 15.34 4.32 15 5 C14.34 4.690625 13.68 4.38125 13 4.0625 C9.29523985 2.75039745 5.90736009 2.39735865 2 2 C2 5.3 2 8.6 2 12 C1.34 11.67 0.68 11.34 0 11 C0 7.37 0 3.74 0 0 Z " fill="#DADADA" transform="translate(246,343)"/>
<path d="M0 0 C3.24638016 2.89855371 4.81736608 5.33857517 6.25 9.4375 C6.58515625 10.36433594 6.9203125 11.29117187 7.265625 12.24609375 C7.99593487 14.98475576 8.21871115 17.18160855 8 20 C7 21 7 21 3.5625 21.25 C2.386875 21.1675 1.21125 21.085 0 21 C-0.66 20.01 -1.32 19.02 -2 18 C0.64 18.33 3.28 18.66 6 19 C5.3783476 16.76989746 4.7525397 14.54095304 4.125 12.3125 C3.77695312 11.07113281 3.42890625 9.82976562 3.0703125 8.55078125 C2.18442444 5.61183146 1.19798549 2.82228113 0 0 Z " fill="#ECECEC" transform="translate(266,363)"/>
<path d="M0 0 C2.4375 2 2.4375 2 4 4 C3.32453125 3.90460938 2.6490625 3.80921875 1.953125 3.7109375 C1.06109375 3.60007812 0.1690625 3.48921875 -0.75 3.375 C-1.63171875 3.25898438 -2.5134375 3.14296875 -3.421875 3.0234375 C-6.30546399 2.99722305 -7.65003223 3.35089981 -10 5 C-11.10493335 6.69950428 -11.10493335 6.69950428 -11.75 8.625 C-12.36875 10.295625 -12.36875 10.295625 -13 12 C-13.66 11.67 -14.32 11.34 -15 11 C-14.58534283 6.16233301 -12.5801385 4.14353624 -9 1 C-5.90826248 -0.54586876 -3.40570448 -0.29359521 0 0 Z " fill="#D8D8D8" transform="translate(297,266)"/>
<path d="M0 0 C0.33 1.32 0.66 2.64 1 4 C-3.70078848 8.06554679 -7.27169486 8.44219651 -13.4140625 8.43359375 C-16.36588359 7.93865094 -17.78235918 6.96256007 -20 5 C-19.05898438 5.05800781 -18.11796875 5.11601562 -17.1484375 5.17578125 C-9.09405516 5.81507817 -9.09405516 5.81507817 -2.125 2.5 C-1.42375 1.675 -0.7225 0.85 0 0 Z " fill="#E0E0E0" transform="translate(417,375)"/>
<path d="M0 0 C0.66 0 1.32 0 2 0 C1.66678587 6.33106841 -1.69742959 10.8161146 -5 16 C-6.00442094 17.66400612 -7.00569707 19.32992831 -8 21 C-8.33 20.34 -8.66 19.68 -9 19 C-8.28735352 17.02880859 -8.28735352 17.02880859 -7.12890625 14.6484375 C-6.71962891 13.79765625 -6.31035156 12.946875 -5.88867188 12.0703125 C-5.45103516 11.18085938 -5.01339844 10.29140625 -4.5625 9.375 C-4.12873047 8.4778125 -3.69496094 7.580625 -3.24804688 6.65625 C-2.17237245 4.43397755 -1.08945069 2.21554281 0 0 Z " fill="#EAEAEA" transform="translate(87,245)"/>
<path d="M0 0 C2.91796875 -0.48828125 2.91796875 -0.48828125 6.1875 -0.3125 C7.27417969 -0.26738281 8.36085937 -0.22226563 9.48046875 -0.17578125 C10.72763672 -0.08876953 10.72763672 -0.08876953 12 0 C12 0.99 12 1.98 12 3 C11.67 2.67 11.34 2.34 11 2 C9.31391034 1.92794489 7.62499341 1.91613932 5.9375 1.9375 C5.01839844 1.94652344 4.09929687 1.95554688 3.15234375 1.96484375 C2.44207031 1.97644531 1.73179687 1.98804688 1 2 C0.731875 2.78375 0.46375 3.5675 0.1875 4.375 C-1 7 -1 7 -4 9 C-6.1875 8.625 -6.1875 8.625 -8 8 C-7.67 7.34 -7.34 6.68 -7 6 C-6.38125 5.896875 -5.7625 5.79375 -5.125 5.6875 C-4.073125 5.3471875 -4.073125 5.3471875 -3 5 C-2.58878906 4.16726562 -2.17757812 3.33453125 -1.75390625 2.4765625 C-0.88572266 1.25066406 -0.88572266 1.25066406 0 0 Z " fill="#FEFEFE" transform="translate(195,227)"/>
<path d="M0 0 C2 1 2 1 2.63256836 2.80566406 C3.00166867 5.00996545 3.03066892 6.88352255 2.87890625 9.109375 C2.83056641 9.86347656 2.78222656 10.61757812 2.73242188 11.39453125 C2.64831055 12.56048828 2.64831055 12.56048828 2.5625 13.75 C2.51029297 14.54277344 2.45808594 15.33554688 2.40429688 16.15234375 C2.27510676 18.10193997 2.13830035 20.05102886 2 22 C1.34 22 0.68 22 0 22 C0 14.74 0 7.48 0 0 Z " fill="#E0E0E0" transform="translate(226,207)"/>
<path d="M0 0 C1.79244141 0.01740234 1.79244141 0.01740234 3.62109375 0.03515625 C5.41740234 0.04869141 5.41740234 0.04869141 7.25 0.0625 C8.17683594 0.07410156 9.10367188 0.08570313 10.05859375 0.09765625 C10.38859375 0.75765625 10.71859375 1.41765625 11.05859375 2.09765625 C6.76859375 2.09765625 2.47859375 2.09765625 -1.94140625 2.09765625 C-2.27140625 4.40765625 -2.60140625 6.71765625 -2.94140625 9.09765625 C-4.92140625 9.09765625 -6.90140625 9.09765625 -8.94140625 9.09765625 C-9.27140625 7.44765625 -9.60140625 5.79765625 -9.94140625 4.09765625 C-9.61140625 5.08765625 -9.28140625 6.07765625 -8.94140625 7.09765625 C-7.29140625 7.09765625 -5.64140625 7.09765625 -3.94140625 7.09765625 C-3.96203125 6.12828125 -3.98265625 5.15890625 -4.00390625 4.16015625 C-3.92166227 0.13020127 -3.92166227 0.13020127 0 0 Z " fill="#E7E7E7" transform="translate(224.94140625,280.90234375)"/>
<path d="M0 0 C1.2819822 3.8459466 0.97338741 7.32875791 0.75 11.3125 C0.72292969 12.05951172 0.69585937 12.80652344 0.66796875 13.57617188 C0.40779932 18.35573617 -0.37924628 21.85959548 -3 26 C-5.1875 26.875 -5.1875 26.875 -7 27 C-6.505 25.515 -6.505 25.515 -6 24 C-5.34 23.67 -4.68 23.34 -4 23 C-1.95889611 18.23742425 -1.62751429 13.78080979 -1.4375 8.6875 C-1.12257394 1.12257394 -1.12257394 1.12257394 0 0 Z " fill="#FCFCFC" transform="translate(129,88)"/>
<path d="M0 0 C1.32 0.66 2.64 1.32 4 2 C3.12021484 2.35191406 3.12021484 2.35191406 2.22265625 2.7109375 C-1.25198677 4.72610832 -3.0272398 7.86919829 -5.31640625 11.1015625 C-5.87199219 11.72804688 -6.42757812 12.35453125 -7 13 C-7.99 13 -8.98 13 -10 13 C-8.60366893 9.81440048 -6.95442507 7.76056155 -4.4375 5.375 C-1.85984611 2.95478041 -1.85984611 2.95478041 0 0 Z " fill="#E8E8E8" transform="translate(122,287)"/>
<path d="M0 0 C1.08410156 0.00257813 2.16820312 0.00515625 3.28515625 0.0078125 C4.90744141 0.00394531 4.90744141 0.00394531 6.5625 0 C9.34765625 0.1328125 9.34765625 0.1328125 11.34765625 1.1328125 C11.01765625 2.1228125 10.68765625 3.1128125 10.34765625 4.1328125 C10.34765625 3.4728125 10.34765625 2.8128125 10.34765625 2.1328125 C6.71765625 2.4628125 3.08765625 2.7928125 -0.65234375 3.1328125 C-0.98234375 4.1228125 -1.31234375 5.1128125 -1.65234375 6.1328125 C-2.31234375 6.1328125 -2.97234375 6.1328125 -3.65234375 6.1328125 C-3.69506475 4.46669345 -3.69298207 2.79898365 -3.65234375 1.1328125 C-2.65234375 0.1328125 -2.65234375 0.1328125 0 0 Z " fill="#E2E2E2" transform="translate(256.65234375,265.8671875)"/>
<path d="M0 0 C0.33 0 0.66 0 1 0 C1 4.95 1 9.9 1 15 C1.66 15 2.32 15 3 15 C3 18.96 3 22.92 3 27 C2.67 27 2.34 27 2 27 C-0.641513 18.08489362 -0.17875809 9.20604186 0 0 Z " fill="#C7C7C7" transform="translate(93,203)"/>
<path d="M0 0 C0.33 0 0.66 0 1 0 C1.42345694 7.23013512 0.96038712 14.28735265 -2 21 C-2.99 21.33 -3.98 21.66 -5 22 C-4.47599711 18.75118205 -3.5961246 15.77803667 -2.5 12.6875 C-1.03834119 8.43799439 -0.40626472 4.46891196 0 0 Z " fill="#F2F2F2" transform="translate(52,65)"/>
<path d="M0 0 C2.10388569 -0.05402274 4.20816714 -0.09280256 6.3125 -0.125 C8.07013672 -0.15980469 8.07013672 -0.15980469 9.86328125 -0.1953125 C13 0 13 0 16 2 C15.67 2.66 15.34 3.32 15 4 C14.43796875 3.67257812 13.8759375 3.34515625 13.296875 3.0078125 C10.73140036 1.88214506 9.03157723 1.7931889 6.25 1.875 C5.05117188 1.90207031 5.05117188 1.90207031 3.828125 1.9296875 C2.92320312 1.96449219 2.92320312 1.96449219 2 2 C2 3.65 2 5.3 2 7 C1.34 7 0.68 7 0 7 C0 4.69 0 2.38 0 0 Z " fill="#EEEEEE" transform="translate(253,276)"/>
<path d="M0 0 C0.66 0 1.32 0 2 0 C2.16938697 2.9642719 2.18267974 4.66204249 0.75 7.3125 C-0.16698661 10.59836867 0.38688202 11.2556148 1.9375 14.1875 C2.33839844 14.86167969 2.73929688 15.53585938 3.15234375 16.23046875 C3.57193359 17.10638672 3.57193359 17.10638672 4 18 C3.67 18.66 3.34 19.32 3 20 C-0.65079024 14.98016343 -2.86725098 11.44243585 -2 5 C-1 2.625 -1 2.625 0 1 C0 0.67 0 0.34 0 0 Z " fill="#DFDFDF" transform="translate(162,113)"/>
<path d="M0 0 C-3.24135649 1.62067825 -6.78997072 1.39697553 -10.37109375 1.62109375 C-13.22644819 1.84017203 -13.22644819 1.84017203 -16 4 C-17.19232613 6.05003955 -17.19232613 6.05003955 -18 8 C-18.6875 5.6875 -18.6875 5.6875 -19 3 C-17.29287357 0.50543144 -16.21039987 0.04142895 -13.22265625 -0.546875 C-11.65837891 -0.64742187 -11.65837891 -0.64742187 -10.0625 -0.75 C-9.02222656 -0.82734375 -7.98195313 -0.9046875 -6.91015625 -0.984375 C-4.35246365 -0.99810758 -2.41886892 -0.76937518 0 0 Z " fill="#DDDDDD" transform="translate(69,57)"/>
<path d="M0 0 C-1.1446875 0.2165625 -1.1446875 0.2165625 -2.3125 0.4375 C-5.53342934 2.31013334 -5.60000134 3.10929595 -6.625 6.5625 C-6.82351562 7.36816406 -7.02203125 8.17382812 -7.2265625 9.00390625 C-7.48179688 9.66261719 -7.73703125 10.32132813 -8 11 C-8.99 11.33 -9.98 11.66 -11 12 C-10.34197179 7.6570138 -8.96361202 3.92722404 -7 0 C-3.86650268 -1.04449911 -3.01031744 -0.93423645 0 0 Z " fill="#E1E1E1" transform="translate(97,57)"/>
<path d="M0 0 C2.38370909 2.38370909 2.29588602 2.9936599 2.3125 6.25 C2.20990267 10.49752953 1.43911362 13.42844077 -1 17 C-3.1875 18.375 -3.1875 18.375 -5 19 C-4.731875 18.484375 -4.46375 17.96875 -4.1875 17.4375 C-3.795625 16.633125 -3.40375 15.82875 -3 15 C-2.46375 13.9275 -1.9275 12.855 -1.375 11.75 C0.21496542 7.41373067 0.24027781 4.56527834 0 0 Z " fill="#E9E9E9" transform="translate(246,24)"/>
<path d="M0 0 C0.66 0 1.32 0 2 0 C1.67 1.65 1.34 3.3 1 5 C0.34 5 -0.32 5 -1 5 C-1.33 5.99 -1.66 6.98 -2 8 C-5.0625 9.1875 -5.0625 9.1875 -8 10 C-8.66 9.34 -9.32 8.68 -10 8 C-8.3603125 7.4121875 -8.3603125 7.4121875 -6.6875 6.8125 C-3.04877046 5.28658116 -1.81300048 3.53057988 0 0 Z " fill="#E7E7E7" transform="translate(224,372)"/>
<path d="M0 0 C3 1 3 1 4 3 C4.35555556 10.46666667 4.35555556 10.46666667 2 14 C1.34 12.68 0.68 11.36 0 10 C0.66 10 1.32 10 2 10 C1.7834375 8.081875 1.7834375 8.081875 1.5625 6.125 C1.48128906 5.40570313 1.40007812 4.68640625 1.31640625 3.9453125 C1.08707039 1.92595684 1.08707039 1.92595684 0 0 Z " fill="#CFCFCF" transform="translate(270,263)"/>
<path d="M0 0 C1.16835309 3.50505927 0.75193262 4.66433282 -0.3125 8.125 C-0.57675781 9.01445312 -0.84101562 9.90390625 -1.11328125 10.8203125 C-2 13 -2 13 -4 14 C-3.53328373 8.58609132 -2.75702189 4.79482068 0 0 Z " fill="#F0F0F0" transform="translate(56,313)"/>
<path d="M0 0 C1.21386936 3.64160808 0.6674695 4.33165469 -0.9375 7.6875 C-1.31777344 8.49574219 -1.69804687 9.30398437 -2.08984375 10.13671875 C-2.39019531 10.75160156 -2.69054687 11.36648437 -3 12 C-3.66 11.67 -4.32 11.34 -5 11 C-4.54917531 9.53932801 -4.08906463 8.08151968 -3.625 6.625 C-3.36976563 5.81289062 -3.11453125 5.00078125 -2.8515625 4.1640625 C-2 2 -2 2 0 0 Z " fill="#DADADA" transform="translate(165,97)"/>
<path d="M0 0 C-2.48775874 2.48775874 -4.07275574 2.61866553 -7.5 3.25 C-8.96953125 3.53617188 -8.96953125 3.53617188 -10.46875 3.828125 C-11.72171875 3.91320313 -11.72171875 3.91320313 -13 4 C-13.66 3.34 -14.32 2.68 -15 2 C-9.77487721 0.53329887 -5.4185766 -0.22577402 0 0 Z " fill="#E0E0E0" transform="translate(136,48)"/>
<path d="M0 0 C0.33 0 0.66 0 1 0 C1.19390729 2.31197155 1.37996367 4.6246029 1.5625 6.9375 C1.66691406 8.22527344 1.77132813 9.51304687 1.87890625 10.83984375 C1.91886719 11.88269531 1.95882813 12.92554688 2 14 C1 15 1 15 -1.5625 15.0625 C-2.366875 15.041875 -3.17125 15.02125 -4 15 C-4 14.34 -4 13.68 -4 13 C-2.68 13 -1.36 13 0 13 C0 8.71 0 4.42 0 0 Z " fill="#D9D9D9" transform="translate(359,275)"/>
<path d="M0 0 C0.66 0 1.32 0 2 0 C1.55149342 1.81495662 1.09090429 3.62693134 0.625 5.4375 C0.24214844 6.95150391 0.24214844 6.95150391 -0.1484375 8.49609375 C-1 11 -1 11 -3 12 C-2.14285714 3.42857143 -2.14285714 3.42857143 0 0 Z " fill="#DFDFDF" transform="translate(65,342)"/>
<path d="M0 0 C1.32 0.33 2.64 0.66 4 1 C3.67 2.65 3.34 4.3 3 6 C-0.63 5.67 -4.26 5.34 -8 5 C-8 4.67 -8 4.34 -8 4 C-4.7 4 -1.4 4 2 4 C2 3.01 2 2.02 2 1 C1.34 0.67 0.68 0.34 0 0 Z " fill="#CDCDCD" transform="translate(367,262)"/>
<path d="M0 0 C2.97 0 5.94 0 9 0 C9 0.99 9 1.98 9 3 C2.84765625 2.4140625 2.84765625 2.4140625 1 2 C0.67 1.34 0.34 0.68 0 0 Z " fill="#E2E2E2" transform="translate(408,363)"/>
<path d="M0 0 C0.66 0 1.32 0 2 0 C2 1.32 2 2.64 2 4 C-0.70879335 5.35439668 -3.00933268 5.06501451 -6 5 C-6.33 4.34 -6.66 3.68 -7 3 C-5.5459375 2.814375 -5.5459375 2.814375 -4.0625 2.625 C-2.5465625 2.315625 -2.5465625 2.315625 -1 2 C-0.67 1.34 -0.34 0.68 0 0 Z " fill="#EBEBEB" transform="translate(443,406)"/>
<path d="M0 0 C0.66 0 1.32 0 2 0 C1.38461538 6.52307692 1.38461538 6.52307692 -0.5625 8.9375 C-1.036875 9.288125 -1.51125 9.63875 -2 10 C-1.54177532 6.53058454 -1.10868317 3.32604951 0 0 Z " fill="#DFDFDF" transform="translate(57,304)"/>
<path d="M0 0 C0.66 1.32 1.32 2.64 2 4 C0.25 5.5625 0.25 5.5625 -2 7 C-4.25 6.6875 -4.25 6.6875 -6 6 C-5.67 5.34 -5.34 4.68 -5 4 C-4.34 3.855625 -3.68 3.71125 -3 3.5625 C-2.01 3.2840625 -2.01 3.2840625 -1 3 C-0.67 2.01 -0.34 1.02 0 0 Z " fill="#DCDCDC" transform="translate(193,229)"/>
<path d="M0 0 C0 0.66 0 1.32 0 2 C-2.95664519 3.4783226 -5.74229737 3.06032783 -9 3 C-9.33 2.34 -9.66 1.68 -10 1 C-6.56484998 0.37542727 -3.50935186 0 0 0 Z " fill="#EDEDED" transform="translate(328,381)"/>
<path d="M0 0 C0.66 0.33 1.32 0.66 2 1 C1.54625 1.7425 1.0925 2.485 0.625 3.25 C-0.68640796 5.46930578 -1.88280803 7.67967822 -3 10 C-3.75 8.375 -3.75 8.375 -4 6 C-2.0625 2.75 -2.0625 2.75 0 0 Z " fill="#E3E3E3" transform="translate(286,268)"/>
<path d="M0 0 C1 2 1 2 0.44140625 3.9453125 C0.15136719 4.66460937 -0.13867188 5.38390625 -0.4375 6.125 C-0.72496094 6.84945312 -1.01242188 7.57390625 -1.30859375 8.3203125 C-1.53675781 8.87460938 -1.76492187 9.42890625 -2 10 C-2.33 10 -2.66 10 -3 10 C-2.88637738 8.5199159 -2.75877092 7.04089926 -2.625 5.5625 C-2.55539063 4.73878906 -2.48578125 3.91507812 -2.4140625 3.06640625 C-2.27742187 2.38449219 -2.14078125 1.70257813 -2 1 C-1.34 0.67 -0.68 0.34 0 0 Z " fill="#DFDFDF" transform="translate(131,79)"/>
<path d="M0 0 C0.66 0.33 1.32 0.66 2 1 C2.125 3.375 2.125 3.375 2 6 C1.34 6.66 0.68 7.32 0 8 C-2.125 7.625 -2.125 7.625 -4 7 C-3.01 6.34 -2.02 5.68 -1 5 C-0.27034634 2.43717258 -0.27034634 2.43717258 0 0 Z " fill="#E7E7E7" transform="translate(310,375)"/>
<path d="M0 0 C0.99 0.66 1.98 1.32 3 2 C1.87816502 4.24366996 0.60553445 6.07335866 -1 8 C-1.66 8 -2.32 8 -3 8 C-1.125 1.125 -1.125 1.125 0 0 Z " fill="#DADADA" transform="translate(200,214)"/>
<path d="M0 0 C0 3 0 3 -1.5625 4.6875 C-4.80631168 6.43416783 -7.37343285 6.20922503 -11 6 C-11 5.67 -11 5.34 -11 5 C-9.9275 4.731875 -8.855 4.46375 -7.75 4.1875 C-4.43491072 3.13772173 -2.56122354 2.25387672 0 0 Z " fill="#F7F7F7" transform="translate(70,111)"/>
<path d="M0 0 C0 3 0 3 -2.5 5.6875 C-3.325 6.450625 -4.15 7.21375 -5 8 C-5.66 7.67 -6.32 7.34 -7 7 C-4.78071806 4.09197539 -3.07030857 2.04687238 0 0 Z " fill="#F5F5F5" transform="translate(73,334)"/>
<path d="M0 0 C0.99 0 1.98 0 3 0 C2.34 2.31 1.68 4.62 1 7 C0.01 7 -0.98 7 -2 7 C-1.125 2.25 -1.125 2.25 0 0 Z " fill="#D1D1D1" transform="translate(227,269)"/>
<path d="M0 0 C1.65 0.33 3.3 0.66 5 1 C1.375 4 1.375 4 -2 4 C-1.34 2.68 -0.68 1.36 0 0 Z " fill="#D4D4D4" transform="translate(285,91)"/>
<path d="M0 0 C0.66 0.33 1.32 0.66 2 1 C1.25 3.4375 1.25 3.4375 0 6 C-2.125 6.8125 -2.125 6.8125 -4 7 C-3.67 6.01 -3.34 5.02 -3 4 C-2.34 3.67 -1.68 3.34 -1 3 C-0.67 2.01 -0.34 1.02 0 0 Z " fill="#EFEFEF" transform="translate(126,108)"/>
<path d="" fill="#FFFFFF" transform="translate(0,0)"/>
</svg>
